<svg version="1.1" id="Layer_1" xmlns="http://www.w3.org/2000/svg" xmlns:xlink="http://www.w3.org/1999/xlink" x="0px" y="0px"
	 width="100%" viewBox="0 0 389 871" enable-background="new 0 0 389 871" xml:space="preserve">
<path fill="#212529" opacity="1.000000" stroke="none" 
	d="
M1.000000,324.000000 
	C1.000000,216.000000 1.000000,108.500000 1.000000,1.000000 
	C130.666672,1.000000 260.333344,1.000000 390.000000,1.000000 
	C390.000000,291.333344 390.000000,581.666687 390.000000,872.000000 
	C260.333344,872.000000 130.666672,872.000000 1.000000,872.000000 
	C1.000000,689.500000 1.000000,507.000000 1.000000,324.000000 
M204.309540,104.207123 
	C203.839478,105.453171 203.369431,106.699211 202.961746,107.967880 
	C202.961746,107.967880 202.939514,107.905357 202.283890,108.231873 
	C201.822342,109.803040 201.360794,111.374199 200.961456,112.965202 
	C200.961456,112.965202 200.941711,112.902962 200.185852,113.019760 
	C199.757019,114.328262 199.328186,115.636757 198.961578,116.965210 
	C198.961578,116.965210 198.941711,116.902962 198.188522,117.018936 
	C197.425690,118.994148 196.662857,120.969353 195.962509,122.967995 
	C195.962509,122.967995 195.939514,122.905357 195.283890,123.231873 
	C194.822342,124.803040 194.360794,126.374207 193.961456,127.965202 
	C193.961456,127.965202 193.941711,127.902962 193.185852,128.019760 
	C192.757019,129.328262 192.328171,130.636765 191.961548,131.965225 
	C191.961548,131.965225 191.941727,131.902969 191.185867,132.019760 
	C190.757019,133.328262 190.328171,134.636765 189.961533,135.965134 
	C189.961533,135.965134 189.941803,135.902893 189.218475,136.009857 
	C188.778870,136.988205 188.339279,137.966568 187.961914,138.965240 
	C187.961914,138.965240 187.941727,138.902969 187.185852,139.019760 
	C186.757019,140.328262 186.328171,141.636765 185.961548,142.965225 
	C185.961548,142.965225 185.941727,142.902969 185.185867,143.019760 
	C184.757034,144.328262 184.328186,145.636765 183.961731,146.967880 
	C183.961731,146.967880 183.939514,146.905350 183.276520,147.239090 
	C181.150894,152.474365 179.025284,157.709656 176.962112,162.967941 
	C176.962112,162.967941 176.939514,162.905350 176.257294,163.258133 
	C174.959778,165.700195 173.136703,168.195953 177.212448,170.699051 
	C178.197174,171.803680 179.181915,172.908310 180.122833,174.512848 
	C180.407211,174.619690 180.691574,174.726517 181.604523,175.124603 
	C183.698288,174.430634 185.792053,173.736649 188.085663,173.521942 
	C188.428619,173.362076 188.771591,173.202194 189.737762,172.749817 
	C193.829483,169.777664 197.921204,166.805496 202.512848,163.877167 
	C202.619690,163.592804 202.726517,163.308426 203.172821,162.401962 
	C208.452850,158.545761 213.732895,154.689545 219.512863,150.877167 
	C219.619690,150.592804 219.726517,150.308426 220.165833,149.407593 
	C223.046280,146.953674 225.842728,144.387680 228.864944,142.122971 
	C229.640793,141.541595 231.199448,141.666702 232.252060,141.972015 
	C232.632614,142.082397 232.995911,143.865906 232.669113,144.554871 
	C228.869156,152.566086 225.046432,160.570953 220.990601,168.454468 
	C218.966629,172.388519 219.626190,174.792404 223.663208,176.326981 
	C225.605911,177.065460 227.464783,178.024414 230.038315,179.190033 
	C231.768417,175.003784 233.349075,170.765015 235.244049,166.671753 
	C240.885010,154.486969 246.670959,142.369400 252.360291,130.206894 
	C259.627045,114.672203 266.830597,99.107903 274.116455,83.582214 
	C275.922607,79.733398 277.934631,76.132553 271.055664,75.438713 
	C269.246033,75.256180 267.563080,73.817810 265.987518,73.038078 
	C263.679504,76.242950 261.193695,79.075729 259.398956,82.293900 
	C251.601135,96.276161 241.315247,108.328445 230.489563,119.952209 
	C224.472763,126.412560 218.145355,132.583633 211.279373,138.999863 
	C210.814529,139.652634 210.349670,140.305389 209.426651,141.022400 
	C209.426651,141.022400 208.987076,141.166656 208.487152,141.122833 
	C208.380325,141.407211 208.273499,141.691574 207.936356,142.509964 
	C207.624283,142.728867 207.312210,142.947754 206.316986,143.050644 
	C205.839600,143.686478 205.362213,144.322311 204.426651,145.022400 
	C204.426651,145.022400 203.987076,145.166656 203.487137,145.122833 
	C203.380310,145.407196 203.273483,145.691574 202.842728,146.585587 
	C201.623047,147.277679 200.403351,147.969757 198.365097,149.126328 
	C198.108963,140.745361 204.143539,135.527267 206.512848,128.877167 
	C206.619675,128.592789 206.726501,128.308426 206.971756,127.309151 
	C207.318817,126.483879 207.665863,125.658607 208.512863,124.877151 
	C208.619690,124.592773 208.726517,124.308403 208.971771,123.309135 
	C209.318817,122.483871 209.665878,121.658600 210.512863,120.877151 
	C210.619690,120.592781 210.726517,120.308403 210.972305,119.260887 
	C211.450470,117.888351 211.792267,116.448769 212.428894,115.154160 
	C216.587952,106.696365 220.810867,98.269981 225.512878,89.877151 
	C225.619705,89.592781 225.726532,89.308403 225.972885,88.250229 
	C226.926361,83.829163 227.879852,79.408104 228.877136,74.487144 
	C228.592773,74.380318 228.308411,74.273491 227.376770,74.016670 
	C226.862289,73.677505 226.347824,73.338348 225.827301,72.439766 
	C225.327087,72.407280 224.826874,72.374802 224.313934,72.006790 
	C224.091797,71.765297 223.869675,71.523796 223.339554,70.907295 
	C220.431305,68.610146 219.973495,70.451126 219.963699,72.965401 
	C219.963699,72.965401 219.941711,72.902962 219.185867,73.019760 
	C218.757034,74.328262 218.328201,75.636765 217.961578,76.965210 
	C217.961578,76.965210 217.941711,76.902962 217.185852,77.019760 
	C216.757019,78.328255 216.328186,79.636757 215.961578,80.965210 
	C215.961578,80.965210 215.941711,80.902962 215.185852,81.019760 
	C214.757019,82.328255 214.328186,83.636757 213.961578,84.965210 
	C213.961578,84.965210 213.941711,84.902962 213.178619,85.022087 
	C211.752304,88.663017 210.325989,92.303955 208.962112,95.967918 
	C208.962112,95.967918 208.939545,95.905327 208.309540,96.207123 
	C207.839478,97.453163 207.369415,98.699211 206.961761,99.967850 
	C206.961761,99.967850 206.939545,99.905327 206.309540,100.207123 
	C205.839493,101.453171 205.369431,102.699219 204.961761,103.967850 
	C204.961761,103.967850 204.939545,103.905327 204.309540,104.207123 
M58.003094,565.368103 
	C58.740627,571.388733 59.432411,577.415405 60.226307,583.428589 
	C61.447449,592.677917 62.799133,601.910339 63.983036,611.164307 
	C65.148438,620.273621 66.118378,629.408020 67.276215,638.518372 
	C68.452621,647.774780 69.802452,657.009155 70.986450,666.264648 
	C72.151566,675.372437 73.152649,684.501282 74.320145,693.608765 
	C75.485764,702.701599 76.847946,711.769531 77.979057,720.866394 
	C79.291840,731.424316 80.446869,742.001770 81.680000,752.653931 
	C165.617722,752.653931 249.657990,752.653931 333.517883,752.653931 
	C334.362427,740.784851 335.151001,729.272278 336.010529,717.765015 
	C336.648438,709.225098 337.317749,700.686523 338.081207,692.157043 
	C339.341553,678.077698 340.750854,664.011536 341.978027,649.929443 
	C342.779114,640.736694 343.268097,631.516602 344.077271,622.324707 
	C345.302338,608.408752 346.759064,594.513184 347.973877,580.596375 
	C348.790741,571.238525 349.275818,561.852173 350.059204,552.491028 
	C351.307312,537.577393 352.703033,522.676086 353.991699,507.765717 
	C354.729126,499.233734 355.317535,490.688751 356.081055,482.159241 
	C357.341370,468.079895 358.750885,454.013763 359.978058,439.931641 
	C360.779114,430.738892 361.267914,421.518860 362.077148,412.326935 
	C363.302246,398.410980 364.759033,384.515381 365.973877,370.598602 
	C366.790802,361.240845 367.275574,351.854370 368.058990,342.493317 
	C369.307098,327.579651 370.703033,312.678406 371.991760,297.768036 
	C372.729156,289.236084 373.317352,280.691010 374.080872,272.161530 
	C375.341217,258.082214 376.763885,244.017105 377.973938,229.933624 
	C378.792267,220.409058 378.602966,210.721039 380.349640,201.383957 
	C381.292908,196.341400 379.569427,195.249847 375.893494,194.465210 
	C373.976654,194.056046 371.954803,194.017929 369.980316,194.017456 
	C285.660614,193.997162 201.340912,193.999985 117.021217,194.000000 
	C84.193192,194.000000 51.365166,193.994675 18.537140,194.004990 
	C12.567932,194.006866 11.757320,194.599213 12.075460,200.650024 
	C12.402418,206.868561 13.290122,213.060379 14.010509,219.254807 
	C15.071255,228.375900 16.148880,237.495667 17.316423,246.603531 
	C18.481985,255.695969 19.842457,264.763702 20.978685,273.859589 
	C22.117647,282.977295 23.008905,292.126007 24.148727,301.243622 
	C25.346619,310.825775 26.744099,320.382782 27.991842,329.958923 
	C29.093338,338.412720 30.066093,346.883331 31.172358,355.336456 
	C32.744423,367.348846 34.446434,379.344421 35.979328,391.361664 
	C37.120953,400.311493 37.997532,409.295197 39.145153,418.244171 
	C40.685951,430.259094 42.423351,442.248688 43.983147,454.261261 
	C45.165421,463.366364 46.150330,472.496979 47.317989,481.604095 
	C48.483807,490.696869 49.822334,499.767487 50.984650,508.860687 
	C52.169628,518.131042 53.192268,527.422119 54.359749,536.694824 
	C55.525738,545.955750 56.783134,555.205078 58.003094,565.368103 
M348.413300,141.058380 
	C358.716919,130.602081 367.918182,119.410339 372.467407,105.102142 
	C374.784454,97.814522 378.082489,90.871651 374.154449,82.798332 
	C371.110077,76.541176 363.247040,72.519150 357.950592,74.507271 
	C354.185089,75.920738 350.361084,77.191368 346.650024,78.734566 
	C336.025421,83.152641 326.915710,89.836121 318.556763,97.656281 
	C316.252594,99.811935 313.639679,101.637611 311.168427,103.614693 
	C310.769745,103.302193 310.371063,102.989685 309.972351,102.677177 
	C310.166626,101.112350 309.918640,99.303650 310.625641,98.021545 
	C315.932648,88.397537 321.356445,78.835808 326.881836,69.334908 
	C334.322906,56.539997 341.936493,43.845413 349.373260,31.048038 
	C352.046448,26.447931 347.344482,18.906084 341.983429,19.090429 
	C341.303345,19.113815 340.410187,19.928980 340.028229,20.609016 
	C331.289520,36.167995 322.535675,51.719322 313.936035,67.355339 
	C304.857941,83.861313 295.645996,100.304169 287.037262,117.054558 
	C279.802765,131.131012 273.365112,145.616440 266.542297,159.905350 
	C264.837555,163.475525 260.728516,168.087173 261.778900,170.262039 
	C263.294250,173.399658 268.512726,174.748795 271.922760,176.728546 
	C274.191895,174.295853 276.422241,171.904739 278.623993,169.544266 
	C283.862183,173.989609 284.051575,173.813690 289.663239,170.945511 
	C294.701691,168.370270 300.011108,166.329163 305.172180,163.988892 
	C313.995880,159.987793 322.941345,156.218842 331.556763,151.807632 
	C337.256866,148.889099 342.469879,145.019241 348.413300,141.058380 
M60.475327,65.021103 
	C57.375187,68.570312 53.786747,71.805496 51.265068,75.726707 
	C43.207394,88.256401 35.338326,100.778938 31.436628,115.589249 
	C28.879477,125.295853 28.818832,134.879761 29.219404,144.539871 
	C29.395836,148.794662 31.468616,153.163528 33.422035,157.113876 
	C38.261913,166.901489 46.578415,171.706711 57.217995,173.770355 
	C67.976273,175.857025 77.914169,174.366119 87.682060,169.849060 
	C102.592484,162.953903 113.495567,151.733978 121.462547,137.723175 
	C124.293655,132.744370 129.430038,128.271698 127.882690,121.959625 
	C125.413773,120.414658 123.484451,118.840820 121.277420,117.974480 
	C120.100403,117.512466 117.669777,117.751709 117.123421,118.562691 
	C111.914734,126.294174 107.291756,134.430420 101.913490,142.035217 
	C92.794357,154.929520 80.850853,162.969467 64.252762,162.012817 
	C62.591827,161.917084 60.920589,162.002014 59.254139,161.999664 
	C50.473217,161.987228 42.384666,153.501480 41.921932,144.727814 
	C41.023964,127.701828 46.545906,112.277603 54.743744,98.108482 
	C66.638664,77.549332 81.170197,58.825996 100.794914,44.818825 
	C110.799431,37.678089 121.624741,32.057281 133.961731,29.912489 
	C139.660995,28.921665 145.324524,27.725330 150.999420,26.623112 
	C150.999420,24.556557 151.026367,23.057909 150.994644,21.560505 
	C150.872940,15.813696 149.079300,13.747367 143.590546,14.079387 
	C138.881592,14.364235 134.047684,14.781470 129.565491,16.127375 
	C121.892014,18.431543 114.086052,20.802082 107.012695,24.455439 
	C99.845695,28.157156 92.909599,32.794357 86.930290,38.193432 
	C77.811302,46.427498 69.602524,55.669590 60.475327,65.021103 
M103.908707,846.164734 
	C104.078697,845.196411 103.937119,843.990784 104.466370,843.296143 
	C110.429169,835.470215 116.216644,827.483398 122.623955,820.032288 
	C127.486389,814.377625 133.108643,809.364319 138.515778,804.194275 
	C142.162399,800.707458 145.926361,797.325745 149.837341,794.142090 
	C151.322830,792.932861 153.366714,792.409546 155.863525,791.243164 
	C155.863525,793.623840 156.330643,795.167114 155.788132,796.157104 
	C152.112885,802.864197 148.740692,809.470581 146.516281,817.037109 
	C143.418518,827.574463 137.696014,837.330444 133.276718,847.498962 
	C132.568497,849.128540 132.021225,852.268005 132.754532,852.784119 
	C134.279617,853.857422 136.971527,854.365662 138.699265,853.748779 
	C140.404800,853.139771 141.645142,850.953552 142.859238,849.291016 
	C147.497345,842.939819 151.555786,836.091980 156.728455,830.220520 
	C166.151291,819.524780 176.125168,809.305847 186.094116,799.107971 
	C187.858841,797.302795 190.716965,796.566467 193.070160,795.336548 
	C193.572525,795.841064 194.074890,796.345581 194.577255,796.850098 
	C185.567307,815.262878 177.801575,834.156433 170.215805,853.500549 
	C179.289658,854.466492 179.424332,854.352722 182.003983,847.667786 
	C182.981247,845.135254 184.124039,842.661987 185.284073,840.205444 
	C188.805008,832.749146 192.466537,825.357849 195.896118,817.860168 
	C200.353867,808.114685 204.426910,798.188416 209.065842,788.532227 
	C213.212738,779.900208 213.149384,778.477844 204.996552,772.387085 
	C191.375671,783.482544 177.526276,794.764221 163.676880,806.045837 
	C163.232361,805.811096 162.787857,805.576294 162.343353,805.341492 
	C164.980072,798.528137 167.136108,791.474915 170.383759,784.966431 
	C173.885681,777.948303 174.250641,777.589478 168.370667,771.903748 
	C168.025360,771.569763 167.583054,771.336121 166.514709,770.582092 
	C159.468201,775.783264 152.132965,780.943665 145.085785,786.471375 
	C138.214172,791.861389 131.636902,797.626770 124.070251,803.945679 
	C124.070251,801.775452 123.777069,800.708923 124.117615,799.913757 
	C126.415710,794.548096 128.903427,789.263733 131.212982,783.902771 
	C132.328842,781.312561 133.766296,778.109558 130.869797,776.214417 
	C127.907211,774.276001 124.722260,774.377747 123.425575,778.944031 
	C122.905678,780.774902 121.397003,782.300171 120.569962,784.072571 
	C113.939514,798.282288 107.357368,812.514587 100.775658,826.747009 
	C97.576317,833.665283 94.186356,840.510681 91.393791,847.590576 
	C90.741203,849.245056 91.530273,852.900024 92.767715,853.564575 
	C95.207901,854.875000 98.200714,854.340515 99.985031,851.280029 
	C100.929932,849.659302 102.330345,848.304138 103.908707,846.164734 
M144.537109,151.923843 
	C142.690109,155.799026 140.910553,159.708206 138.979706,163.541153 
	C136.330551,168.800018 136.440979,169.192719 142.053162,171.546463 
	C149.488190,174.664734 149.177643,174.545273 151.997421,167.213898 
	C155.689117,157.615540 159.997482,148.256180 163.923035,138.745514 
	C170.007034,124.005455 175.740341,109.115105 182.098404,94.495514 
	C187.140228,82.902481 192.808502,71.577225 198.359879,60.211830 
	C203.632309,49.417492 209.085281,38.710808 214.514359,27.993687 
	C217.884033,21.341866 217.930405,21.365404 211.258301,18.056202 
	C210.670975,17.764906 210.039871,17.537170 209.504257,17.170227 
	C205.796890,14.630425 204.139038,16.708071 203.080322,20.028664 
	C202.834839,20.798576 203.038284,21.751856 202.684814,22.441092 
	C197.147583,33.238243 191.345749,43.905144 186.038757,54.813145 
	C182.003296,63.107624 178.743774,71.776413 174.839020,80.138573 
	C170.766098,88.860870 165.979813,97.261734 162.151367,106.083458 
	C157.720032,116.294441 153.958878,126.798019 149.975876,137.201035 
	C148.201706,141.834885 146.596603,146.533463 144.537109,151.923843 
M269.096436,840.767151 
	C272.676636,836.962830 276.241547,833.143982 279.842041,829.358948 
	C282.567749,826.493530 284.847412,827.778870 286.666199,830.377441 
	C291.736664,837.621765 296.646149,844.978821 301.727753,852.215149 
	C303.091370,854.156921 309.520508,854.937500 310.946106,853.317993 
	C311.517273,852.669189 311.611511,850.849487 311.110718,850.121094 
	C304.172668,840.029358 297.018280,830.085510 290.151672,819.946472 
	C289.369507,818.791626 289.343719,816.246765 290.098511,815.075439 
	C294.123535,808.828857 298.697052,802.935059 302.703979,796.677979 
	C305.464081,792.367920 308.055267,787.828918 309.810913,783.057068 
	C310.494751,781.198425 309.396057,777.549683 307.834839,776.264465 
	C305.479492,774.325378 302.680939,774.191223 301.454102,778.716858 
	C300.507782,782.207520 298.077423,785.335449 296.107819,788.500732 
	C292.368256,794.510437 288.486053,800.431335 284.559692,806.550293 
	C278.050781,800.007263 269.996338,783.946838 268.436401,774.822998 
	C265.266388,776.048462 262.186493,777.239136 258.759918,778.563782 
	C260.486481,781.204529 261.914795,782.963928 262.884033,784.947571 
	C266.482147,792.311157 270.083618,799.680847 273.369598,807.185852 
	C275.086456,811.106995 278.430054,815.369141 274.753632,819.630493 
	C268.373749,827.025208 261.582672,834.066833 254.907379,841.203552 
	C253.692108,842.502747 251.943436,843.353027 250.900589,844.752869 
	C248.789932,847.586182 249.886215,850.273071 252.217606,852.351013 
	C253.074356,853.114563 255.206619,853.795105 255.770233,853.326538 
	C260.312744,849.549744 264.619720,845.489563 269.096436,840.767151 
M237.430878,781.080261 
	C235.317856,785.727051 233.137299,790.344482 231.103989,795.025818 
	C224.063461,811.235474 217.003632,827.437622 210.149445,843.726135 
	C209.232605,845.904846 208.894867,848.679504 209.369980,850.952148 
	C209.631699,852.204041 212.073318,853.143066 213.688217,853.882080 
	C214.173248,854.104004 215.568939,853.376160 215.894547,852.746033 
	C219.319229,846.118835 222.962509,839.570374 225.841003,832.704773 
	C228.687683,825.915039 230.320755,818.612732 233.220596,811.850159 
	C236.797150,803.509338 241.196411,795.524292 245.098465,787.318115 
	C246.183594,785.036072 247.998734,782.014709 247.272873,780.229614 
	C246.339874,777.935120 243.182632,776.545044 240.709503,774.543579 
	C239.434967,777.240967 238.668808,778.862366 237.430878,781.080261 
z"/>
<path fill="#AEB2B6" opacity="1.000000" stroke="none" 
	d="
M58.001778,564.913818 
	C56.783134,555.205078 55.525738,545.955750 54.359749,536.694824 
	C53.192268,527.422119 52.169628,518.131042 50.984650,508.860687 
	C49.822334,499.767487 48.483807,490.696869 47.317989,481.604095 
	C46.150330,472.496979 45.165421,463.366364 43.983147,454.261261 
	C42.423351,442.248688 40.685951,430.259094 39.145153,418.244171 
	C37.997532,409.295197 37.120953,400.311493 35.979328,391.361664 
	C34.446434,379.344421 32.744423,367.348846 31.172358,355.336456 
	C30.066093,346.883331 29.093338,338.412720 27.991842,329.958923 
	C26.744099,320.382782 25.346619,310.825775 24.148727,301.243622 
	C23.008905,292.126007 22.117647,282.977295 20.978685,273.859589 
	C19.842457,264.763702 18.481985,255.695969 17.316423,246.603531 
	C16.148880,237.495667 15.071255,228.375900 14.010509,219.254807 
	C13.290122,213.060379 12.402418,206.868561 12.075460,200.650024 
	C11.757320,194.599213 12.567932,194.006866 18.537140,194.004990 
	C51.365166,193.994675 84.193192,194.000000 117.021217,194.000000 
	C201.340912,193.999985 285.660614,193.997162 369.980316,194.017456 
	C371.954803,194.017929 373.976654,194.056046 375.893494,194.465210 
	C379.569427,195.249847 381.292908,196.341400 380.349640,201.383957 
	C378.602966,210.721039 378.792267,220.409058 377.973938,229.933624 
	C376.763885,244.017105 375.341217,258.082214 374.080872,272.161530 
	C373.317352,280.691010 372.729156,289.236084 371.991760,297.768036 
	C370.703033,312.678406 369.307098,327.579651 368.058990,342.493317 
	C367.275574,351.854370 366.790802,361.240845 365.973877,370.598602 
	C364.759033,384.515381 363.302246,398.410980 362.077148,412.326935 
	C361.267914,421.518860 360.779114,430.738892 359.978058,439.931641 
	C358.750885,454.013763 357.341370,468.079895 356.081055,482.159241 
	C355.317535,490.688751 354.729126,499.233734 353.991699,507.765717 
	C352.703033,522.676086 351.307312,537.577393 350.059204,552.491028 
	C349.275818,561.852173 348.790741,571.238525 347.973877,580.596375 
	C346.759064,594.513184 345.302338,608.408752 344.077271,622.324707 
	C343.268097,631.516602 342.779114,640.736694 341.978027,649.929443 
	C340.750854,664.011536 339.341553,678.077698 338.081207,692.157043 
	C337.317749,700.686523 336.648438,709.225098 336.010529,717.765015 
	C335.151001,729.272278 334.362427,740.784851 333.517883,752.653931 
	C249.657990,752.653931 165.617722,752.653931 81.680000,752.653931 
	C80.446869,742.001770 79.291840,731.424316 77.979057,720.866394 
	C76.847946,711.769531 75.485764,702.701599 74.320145,693.608765 
	C73.152649,684.501282 72.151566,675.372437 70.986450,666.264648 
	C69.802452,657.009155 68.452621,647.774780 67.276215,638.518372 
	C66.118378,629.408020 65.148438,620.273621 63.983036,611.164307 
	C62.799133,601.910339 61.447449,592.677917 60.226307,583.428589 
	C59.432411,577.415405 58.740627,571.388733 58.001778,564.913818 
M329.002991,704.723206 
	C329.668671,698.354004 330.443085,691.993896 330.974274,685.613525 
	C331.753754,676.250793 332.274689,666.866577 333.058167,657.504211 
	C334.306335,642.588501 335.702789,627.685303 336.991699,612.772949 
	C337.729218,604.239807 338.317291,595.693604 339.080811,587.162964 
	C340.341125,573.081726 341.750763,559.013611 342.978058,544.929626 
	C343.779266,535.735596 344.268402,526.514343 345.077606,517.321167 
	C346.302673,503.403351 347.759033,489.505859 348.973999,475.587219 
	C349.790924,466.228149 350.238770,456.836670 351.069916,447.479095 
	C352.276611,433.892700 353.778442,420.332397 354.966492,406.744507 
	C355.813721,397.054962 356.196960,387.324615 357.062073,377.636993 
	C358.597137,360.447662 360.374939,343.280151 361.985382,326.097351 
	C363.044556,314.796295 364.062408,303.490295 364.966522,292.175964 
	C366.370544,274.605286 367.609985,257.021423 369.031464,239.452225 
	C369.480896,233.897629 370.445709,228.384689 370.893555,222.830017 
	C371.443939,216.003021 371.699890,209.152313 372.087616,202.231079 
	C254.334763,202.231079 137.393463,202.231079 19.904247,202.231079 
	C42.997150,383.301178 66.052261,564.074951 89.092110,744.729004 
	C168.382965,744.729004 246.983032,744.729004 325.903198,744.729004 
	C326.948456,731.544556 327.974487,718.602722 329.002991,704.723206 
z"/>
<path fill="#AEB2B6" opacity="1.000000" stroke="none" 
	d="
M348.157166,141.316833 
	C342.469879,145.019241 337.256866,148.889099 331.556763,151.807632 
	C322.941345,156.218842 313.995880,159.987793 305.172180,163.988892 
	C300.011108,166.329163 294.701691,168.370270 289.663239,170.945511 
	C284.051575,173.813690 283.862183,173.989609 278.623993,169.544266 
	C276.422241,171.904739 274.191895,174.295853 271.922760,176.728546 
	C268.512726,174.748795 263.294250,173.399658 261.778900,170.262039 
	C260.728516,168.087173 264.837555,163.475525 266.542297,159.905350 
	C273.365112,145.616440 279.802765,131.131012 287.037262,117.054558 
	C295.645996,100.304169 304.857941,83.861313 313.936035,67.355339 
	C322.535675,51.719322 331.289520,36.167995 340.028229,20.609016 
	C340.410187,19.928980 341.303345,19.113815 341.983429,19.090429 
	C347.344482,18.906084 352.046448,26.447931 349.373260,31.048038 
	C341.936493,43.845413 334.322906,56.539997 326.881836,69.334908 
	C321.356445,78.835808 315.932648,88.397537 310.625641,98.021545 
	C309.918640,99.303650 310.166626,101.112350 309.972351,102.677177 
	C310.371063,102.989685 310.769745,103.302193 311.168427,103.614693 
	C313.639679,101.637611 316.252594,99.811935 318.556763,97.656281 
	C326.915710,89.836121 336.025421,83.152641 346.650024,78.734566 
	C350.361084,77.191368 354.185089,75.920738 357.950592,74.507271 
	C363.247040,72.519150 371.110077,76.541176 374.154449,82.798332 
	C378.082489,90.871651 374.784454,97.814522 372.467407,105.102142 
	C367.918182,119.410339 358.716919,130.602081 348.157166,141.316833 
M308.966980,121.546982 
	C304.549957,128.060547 300.037964,134.512329 295.748718,141.108978 
	C292.793549,145.653854 290.146942,150.399338 286.804413,155.988205 
	C289.979065,155.988205 291.520050,156.242966 292.923737,155.913177 
	C294.206726,155.611755 295.268738,154.403488 296.552124,154.065125 
	C309.307465,150.702255 320.795441,144.552231 332.067017,137.958542 
	C342.736145,131.717239 352.068787,123.835571 358.241547,113.031746 
	C361.912476,106.606674 365.427307,99.904045 363.205017,91.662560 
	C362.066498,87.440338 359.599792,86.898232 356.391724,87.125427 
	C354.348755,87.270126 352.272888,88.080818 350.373657,88.947586 
	C334.180695,96.337776 320.791260,107.335579 308.966980,121.546982 
z"/>
<path fill="#AEB2B6" opacity="1.000000" stroke="none" 
	d="
M60.741295,64.752380 
	C69.602524,55.669590 77.811302,46.427498 86.930290,38.193432 
	C92.909599,32.794357 99.845695,28.157156 107.012695,24.455439 
	C114.086052,20.802082 121.892014,18.431543 129.565491,16.127375 
	C134.047684,14.781470 138.881592,14.364235 143.590546,14.079387 
	C149.079300,13.747367 150.872940,15.813696 150.994644,21.560505 
	C151.026367,23.057909 150.999420,24.556557 150.999420,26.623112 
	C145.324524,27.725330 139.660995,28.921665 133.961731,29.912489 
	C121.624741,32.057281 110.799431,37.678089 100.794914,44.818825 
	C81.170197,58.825996 66.638664,77.549332 54.743744,98.108482 
	C46.545906,112.277603 41.023964,127.701828 41.921932,144.727814 
	C42.384666,153.501480 50.473217,161.987228 59.254139,161.999664 
	C60.920589,162.002014 62.591827,161.917084 64.252762,162.012817 
	C80.850853,162.969467 92.794357,154.929520 101.913490,142.035217 
	C107.291756,134.430420 111.914734,126.294174 117.123421,118.562691 
	C117.669777,117.751709 120.100403,117.512466 121.277420,117.974480 
	C123.484451,118.840820 125.413773,120.414658 127.882690,121.959625 
	C129.430038,128.271698 124.293655,132.744370 121.462547,137.723175 
	C113.495567,151.733978 102.592484,162.953903 87.682060,169.849060 
	C77.914169,174.366119 67.976273,175.857025 57.217995,173.770355 
	C46.578415,171.706711 38.261913,166.901489 33.422035,157.113876 
	C31.468616,153.163528 29.395836,148.794662 29.219404,144.539871 
	C28.818832,134.879761 28.879477,125.295853 31.436628,115.589249 
	C35.338326,100.778938 43.207394,88.256401 51.265068,75.726707 
	C53.786747,71.805496 57.375187,68.570312 60.741295,64.752380 
z"/>
<path fill="#AEB2B6" opacity="1.000000" stroke="none" 
	d="
M103.716919,846.496948 
	C102.330345,848.304138 100.929932,849.659302 99.985031,851.280029 
	C98.200714,854.340515 95.207901,854.875000 92.767715,853.564575 
	C91.530273,852.900024 90.741203,849.245056 91.393791,847.590576 
	C94.186356,840.510681 97.576317,833.665283 100.775658,826.747009 
	C107.357368,812.514587 113.939514,798.282288 120.569962,784.072571 
	C121.397003,782.300171 122.905678,780.774902 123.425575,778.944031 
	C124.722260,774.377747 127.907211,774.276001 130.869797,776.214417 
	C133.766296,778.109558 132.328842,781.312561 131.212982,783.902771 
	C128.903427,789.263733 126.415710,794.548096 124.117615,799.913757 
	C123.777069,800.708923 124.070251,801.775452 124.070251,803.945679 
	C131.636902,797.626770 138.214172,791.861389 145.085785,786.471375 
	C152.132965,780.943665 159.468201,775.783264 166.514709,770.582092 
	C167.583054,771.336121 168.025360,771.569763 168.370667,771.903748 
	C174.250641,777.589478 173.885681,777.948303 170.383759,784.966431 
	C167.136108,791.474915 164.980072,798.528137 162.343353,805.341492 
	C162.787857,805.576294 163.232361,805.811096 163.676880,806.045837 
	C177.526276,794.764221 191.375671,783.482544 204.996552,772.387085 
	C213.149384,778.477844 213.212738,779.900208 209.065842,788.532227 
	C204.426910,798.188416 200.353867,808.114685 195.896118,817.860168 
	C192.466537,825.357849 188.805008,832.749146 185.284073,840.205444 
	C184.124039,842.661987 182.981247,845.135254 182.003983,847.667786 
	C179.424332,854.352722 179.289658,854.466492 170.215805,853.500549 
	C177.801575,834.156433 185.567307,815.262878 194.577255,796.850098 
	C194.074890,796.345581 193.572525,795.841064 193.070160,795.336548 
	C190.716965,796.566467 187.858841,797.302795 186.094116,799.107971 
	C176.125168,809.305847 166.151291,819.524780 156.728455,830.220520 
	C151.555786,836.091980 147.497345,842.939819 142.859238,849.291016 
	C141.645142,850.953552 140.404800,853.139771 138.699265,853.748779 
	C136.971527,854.365662 134.279617,853.857422 132.754532,852.784119 
	C132.021225,852.268005 132.568497,849.128540 133.276718,847.498962 
	C137.696014,837.330444 143.418518,827.574463 146.516281,817.037109 
	C148.740692,809.470581 152.112885,802.864197 155.788132,796.157104 
	C156.330643,795.167114 155.863525,793.623840 155.863525,791.243164 
	C153.366714,792.409546 151.322830,792.932861 149.837341,794.142090 
	C145.926361,797.325745 142.162399,800.707458 138.515778,804.194275 
	C133.108643,809.364319 127.486389,814.377625 122.623955,820.032288 
	C116.216644,827.483398 110.429169,835.470215 104.466370,843.296143 
	C103.937119,843.990784 104.078697,845.196411 103.716919,846.496948 
z"/>
<path fill="#AEB2B6" opacity="1.000000" stroke="none" 
	d="
M180.166656,174.012924 
	C179.181915,172.908310 178.197174,171.803680 177.092255,169.956390 
	C176.961227,167.110931 176.950363,165.008148 176.939514,162.905350 
	C176.939514,162.905350 176.962112,162.967941 177.235306,162.807037 
	C179.652176,157.399200 181.795853,152.152267 183.939514,146.905350 
	C183.939514,146.905350 183.961731,146.967880 184.229294,146.789856 
	C184.978470,145.375534 185.460098,144.139252 185.941711,142.902969 
	C185.941727,142.902969 185.961548,142.965225 186.229218,142.788513 
	C186.978485,141.375534 187.460114,140.139252 187.941727,138.902969 
	C187.941727,138.902969 187.961914,138.965240 188.219574,138.807587 
	C188.965439,137.734268 189.453613,136.818573 189.941803,135.902893 
	C189.941803,135.902893 189.961533,135.965134 190.229202,135.788483 
	C190.978485,134.375534 191.460098,133.139252 191.941727,131.902969 
	C191.941727,131.902969 191.961548,131.965225 192.229218,131.788528 
	C192.978485,130.375534 193.460098,129.139252 193.941711,127.902962 
	C193.941711,127.902962 193.961456,127.965202 194.236328,127.776825 
	C194.987305,126.027412 195.463409,124.466385 195.939514,122.905357 
	C195.939514,122.905357 195.962509,122.967995 196.253510,122.813583 
	C197.343582,120.740433 198.142654,118.821701 198.941711,116.902962 
	C198.941711,116.902962 198.961578,116.965210 199.229218,116.788513 
	C199.978485,115.375526 200.460098,114.139244 200.941711,112.902962 
	C200.941711,112.902962 200.961456,112.965202 201.236359,112.776825 
	C201.987335,111.027428 202.463425,109.466393 202.939514,107.905357 
	C202.939514,107.905357 202.961746,107.967880 203.229248,107.790047 
	C203.977676,106.376587 204.458618,105.140961 204.939545,103.905327 
	C204.939545,103.905327 204.961761,103.967850 205.229248,103.790031 
	C205.977661,102.376579 206.458603,101.140953 206.939545,99.905327 
	C206.939545,99.905327 206.961761,99.967850 207.229248,99.790031 
	C207.977676,98.376587 208.458603,97.140953 208.939545,95.905327 
	C208.939545,95.905327 208.962112,95.967918 209.236664,95.805809 
	C210.988037,92.063454 212.464874,88.483208 213.941711,84.902962 
	C213.941711,84.902962 213.961578,84.965210 214.229233,84.788513 
	C214.978500,83.375526 215.460114,82.139244 215.941711,80.902962 
	C215.941711,80.902962 215.961578,80.965210 216.229233,80.788513 
	C216.978500,79.375526 217.460114,78.139244 217.941711,76.902962 
	C217.941711,76.902962 217.961578,76.965210 218.229233,76.788513 
	C218.978500,75.375526 219.460114,74.139244 219.941711,72.902962 
	C219.941711,72.902962 219.963699,72.965401 220.579391,72.730156 
	C222.012573,72.090706 222.830048,71.686508 223.647537,71.282303 
	C223.869675,71.523796 224.091797,71.765297 224.695038,72.345596 
	C225.328537,72.789330 225.580948,72.894264 225.833344,72.999191 
	C226.347824,73.338348 226.862289,73.677505 227.826538,74.236877 
	C228.450760,74.645523 228.636444,74.822182 228.833344,74.987045 
	C227.879852,79.408104 226.926361,83.829163 225.757904,88.763245 
	C225.354477,89.450745 225.177811,89.636436 225.012909,89.833328 
	C220.810867,98.269981 216.587952,106.696365 212.428894,115.154160 
	C211.792267,116.448769 211.450470,117.888351 210.757614,119.768578 
	C210.354477,120.450745 210.177811,120.636436 210.012924,120.833336 
	C209.665878,121.658600 209.318817,122.483871 208.757355,123.792702 
	C208.354477,124.450745 208.177811,124.636436 208.012909,124.833336 
	C207.665863,125.658607 207.318817,126.483879 206.757355,127.792725 
	C206.354477,128.450775 206.177811,128.636459 206.012924,128.833344 
	C204.143539,135.527267 198.108963,140.745361 198.365097,149.126328 
	C200.403351,147.969757 201.623047,147.277679 203.149902,146.154648 
	C203.645523,145.549225 203.822189,145.363541 203.987076,145.166656 
	C203.987076,145.166656 204.426651,145.022400 204.923706,144.887527 
	C205.947220,144.223984 206.473679,143.695312 207.000137,143.166656 
	C207.312210,142.947754 207.624283,142.728867 208.196716,142.116837 
	C208.645523,141.549225 208.822189,141.363541 208.987076,141.166656 
	C208.987076,141.166656 209.426651,141.022400 209.932953,140.864166 
	C210.945496,140.098999 211.451706,139.492035 211.957932,138.885086 
	C218.145355,132.583633 224.472763,126.412560 230.489563,119.952209 
	C241.315247,108.328445 251.601135,96.276161 259.398956,82.293900 
	C261.193695,79.075729 263.679504,76.242950 265.987518,73.038078 
	C267.563080,73.817810 269.246033,75.256180 271.055664,75.438713 
	C277.934631,76.132553 275.922607,79.733398 274.116455,83.582214 
	C266.830597,99.107903 259.627045,114.672203 252.360291,130.206894 
	C246.670959,142.369400 240.885010,154.486969 235.244049,166.671753 
	C233.349075,170.765015 231.768417,175.003784 230.038315,179.190033 
	C227.464783,178.024414 225.605911,177.065460 223.663208,176.326981 
	C219.626190,174.792404 218.966629,172.388519 220.990601,168.454468 
	C225.046432,160.570953 228.869156,152.566086 232.669113,144.554871 
	C232.995911,143.865906 232.632614,142.082397 232.252060,141.972015 
	C231.199448,141.666702 229.640793,141.541595 228.864944,142.122971 
	C225.842728,144.387680 223.046280,146.953674 219.854385,149.841949 
	C219.354477,150.450775 219.177811,150.636459 219.012924,150.833344 
	C213.732895,154.689545 208.452850,158.545761 202.857880,162.839127 
	C202.354477,163.450775 202.177811,163.636459 202.012924,163.833344 
	C197.921204,166.805496 193.829483,169.777664 189.118958,172.890900 
	C188.295380,173.035538 188.090607,173.039108 187.885818,173.042664 
	C185.792053,173.736649 183.698288,174.430634 181.164124,174.833771 
	C180.549225,174.354477 180.363541,174.177811 180.166656,174.012924 
z"/>
<path fill="#AEB2B6" opacity="1.000000" stroke="none" 
	d="
M144.725937,151.563263 
	C146.596603,146.533463 148.201706,141.834885 149.975876,137.201035 
	C153.958878,126.798019 157.720032,116.294441 162.151367,106.083458 
	C165.979813,97.261734 170.766098,88.860870 174.839020,80.138573 
	C178.743774,71.776413 182.003296,63.107624 186.038757,54.813145 
	C191.345749,43.905144 197.147583,33.238243 202.684814,22.441092 
	C203.038284,21.751856 202.834839,20.798576 203.080322,20.028664 
	C204.139038,16.708071 205.796890,14.630425 209.504257,17.170227 
	C210.039871,17.537170 210.670975,17.764906 211.258301,18.056202 
	C217.930405,21.365404 217.884033,21.341866 214.514359,27.993687 
	C209.085281,38.710808 203.632309,49.417492 198.359879,60.211830 
	C192.808502,71.577225 187.140228,82.902481 182.098404,94.495514 
	C175.740341,109.115105 170.007034,124.005455 163.923035,138.745514 
	C159.997482,148.256180 155.689117,157.615540 151.997421,167.213898 
	C149.177643,174.545273 149.488190,174.664734 142.053162,171.546463 
	C136.440979,169.192719 136.330551,168.800018 138.979706,163.541153 
	C140.910553,159.708206 142.690109,155.799026 144.725937,151.563263 
z"/>
<path fill="#AEB2B6" opacity="1.000000" stroke="none" 
	d="
M269.047546,841.141541 
	C264.619720,845.489563 260.312744,849.549744 255.770233,853.326538 
	C255.206619,853.795105 253.074356,853.114563 252.217606,852.351013 
	C249.886215,850.273071 248.789932,847.586182 250.900589,844.752869 
	C251.943436,843.353027 253.692108,842.502747 254.907379,841.203552 
	C261.582672,834.066833 268.373749,827.025208 274.753632,819.630493 
	C278.430054,815.369141 275.086456,811.106995 273.369598,807.185852 
	C270.083618,799.680847 266.482147,792.311157 262.884033,784.947571 
	C261.914795,782.963928 260.486481,781.204529 258.759918,778.563782 
	C262.186493,777.239136 265.266388,776.048462 268.436401,774.822998 
	C269.996338,783.946838 278.050781,800.007263 284.559692,806.550293 
	C288.486053,800.431335 292.368256,794.510437 296.107819,788.500732 
	C298.077423,785.335449 300.507782,782.207520 301.454102,778.716858 
	C302.680939,774.191223 305.479492,774.325378 307.834839,776.264465 
	C309.396057,777.549683 310.494751,781.198425 309.810913,783.057068 
	C308.055267,787.828918 305.464081,792.367920 302.703979,796.677979 
	C298.697052,802.935059 294.123535,808.828857 290.098511,815.075439 
	C289.343719,816.246765 289.369507,818.791626 290.151672,819.946472 
	C297.018280,830.085510 304.172668,840.029358 311.110718,850.121094 
	C311.611511,850.849487 311.517273,852.669189 310.946106,853.317993 
	C309.520508,854.937500 303.091370,854.156921 301.727753,852.215149 
	C296.646149,844.978821 291.736664,837.621765 286.666199,830.377441 
	C284.847412,827.778870 282.567749,826.493530 279.842041,829.358948 
	C276.241547,833.143982 272.676636,836.962830 269.047546,841.141541 
z"/>
<path fill="#AEB2B6" opacity="1.000000" stroke="none" 
	d="
M237.666779,780.782043 
	C238.668808,778.862366 239.434967,777.240967 240.709503,774.543579 
	C243.182632,776.545044 246.339874,777.935120 247.272873,780.229614 
	C247.998734,782.014709 246.183594,785.036072 245.098465,787.318115 
	C241.196411,795.524292 236.797150,803.509338 233.220596,811.850159 
	C230.320755,818.612732 228.687683,825.915039 225.841003,832.704773 
	C222.962509,839.570374 219.319229,846.118835 215.894547,852.746033 
	C215.568939,853.376160 214.173248,854.104004 213.688217,853.882080 
	C212.073318,853.143066 209.631699,852.204041 209.369980,850.952148 
	C208.894867,848.679504 209.232605,845.904846 210.149445,843.726135 
	C217.003632,827.437622 224.063461,811.235474 231.103989,795.025818 
	C233.137299,790.344482 235.317856,785.727051 237.666779,780.782043 
z"/>
<path fill="#AEB2B6" opacity="1.000000" stroke="none" 
	d="
M183.608017,147.072220 
	C181.795853,152.152267 179.652176,157.399200 177.204086,162.795532 
	C179.025284,157.709656 181.150894,152.474365 183.608017,147.072220 
z"/>
<path fill="#AEB2B6" opacity="1.000000" stroke="none" 
	d="
M213.560165,84.962524 
	C212.464874,88.483208 210.988037,92.063454 209.205444,95.794296 
	C210.325989,92.303955 211.752304,88.663017 213.560165,84.962524 
z"/>
<path fill="#AEB2B6" opacity="1.000000" stroke="none" 
	d="
M176.598404,163.081741 
	C176.950363,165.008148 176.961227,167.110931 176.965027,169.664337 
	C173.136703,168.195953 174.959778,165.700195 176.598404,163.081741 
z"/>
<path fill="#AEB2B6" opacity="1.000000" stroke="none" 
	d="
M198.565125,116.960953 
	C198.142654,118.821701 197.343582,120.740433 196.222260,122.801865 
	C196.662857,120.969353 197.425690,118.994148 198.565125,116.960953 
z"/>
<path fill="#AEB2B6" opacity="1.000000" stroke="none" 
	d="
M195.611694,123.068619 
	C195.463409,124.466385 194.987305,126.027412 194.205231,127.766907 
	C194.360794,126.374207 194.822342,124.803040 195.611694,123.068619 
z"/>
<path fill="#AEB2B6" opacity="1.000000" stroke="none" 
	d="
M202.611710,108.068619 
	C202.463425,109.466393 201.987335,111.027428 201.205246,112.766907 
	C201.360794,111.374199 201.822342,109.803040 202.611710,108.068619 
z"/>
<path fill="#AEB2B6" opacity="1.000000" stroke="none" 
	d="
M217.563782,76.961365 
	C217.460114,78.139244 216.978500,79.375526 216.198120,80.778534 
	C216.328186,79.636757 216.757019,78.328255 217.563782,76.961365 
z"/>
<path fill="#AEB2B6" opacity="1.000000" stroke="none" 
	d="
M215.563782,80.961365 
	C215.460114,82.139244 214.978500,83.375526 214.198120,84.778534 
	C214.328186,83.636757 214.757019,82.328255 215.563782,80.961365 
z"/>
<path fill="#AEB2B6" opacity="1.000000" stroke="none" 
	d="
M193.563782,127.961365 
	C193.460098,129.139252 192.978485,130.375534 192.198105,131.778549 
	C192.328171,130.636765 192.757019,129.328262 193.563782,127.961365 
z"/>
<path fill="#AEB2B6" opacity="1.000000" stroke="none" 
	d="
M200.563782,112.961365 
	C200.460098,114.139244 199.978485,115.375526 199.198120,116.778534 
	C199.328186,115.636757 199.757019,114.328262 200.563782,112.961365 
z"/>
<path fill="#AEB2B6" opacity="1.000000" stroke="none" 
	d="
M191.563797,131.961365 
	C191.460098,133.139252 190.978485,134.375534 190.198105,135.778534 
	C190.328171,134.636765 190.757019,133.328262 191.563797,131.961365 
z"/>
<path fill="#AEB2B6" opacity="1.000000" stroke="none" 
	d="
M187.563782,138.961365 
	C187.460114,140.139252 186.978485,141.375534 186.198090,142.778534 
	C186.328171,141.636765 186.757019,140.328262 187.563782,138.961365 
z"/>
<path fill="#AEB2B6" opacity="1.000000" stroke="none" 
	d="
M219.563782,72.961365 
	C219.460114,74.139244 218.978500,75.375526 218.198120,76.778534 
	C218.328201,75.636765 218.757034,74.328262 219.563782,72.961365 
z"/>
<path fill="#AEB2B6" opacity="1.000000" stroke="none" 
	d="
M185.563782,142.961365 
	C185.460098,144.139252 184.978470,145.375534 184.198090,146.778534 
	C184.328186,145.636765 184.757034,144.328262 185.563782,142.961365 
z"/>
<path fill="#AEB2B6" opacity="1.000000" stroke="none" 
	d="
M223.493546,71.094803 
	C222.830048,71.686508 222.012573,72.090706 220.548187,72.719101 
	C219.973495,70.451126 220.431305,68.610146 223.493546,71.094803 
z"/>
<path fill="#AEB2B6" opacity="1.000000" stroke="none" 
	d="
M208.624542,96.056229 
	C208.458603,97.140953 207.977676,98.376587 207.198059,99.778732 
	C207.369415,98.699211 207.839478,97.453163 208.624542,96.056229 
z"/>
<path fill="#AEB2B6" opacity="1.000000" stroke="none" 
	d="
M206.624542,100.056229 
	C206.458603,101.140953 205.977661,102.376579 205.198059,103.778732 
	C205.369431,102.699219 205.839493,101.453171 206.624542,100.056229 
z"/>
<path fill="#AEB2B6" opacity="1.000000" stroke="none" 
	d="
M204.624542,104.056229 
	C204.458618,105.140961 203.977676,106.376587 203.198059,107.778732 
	C203.369431,106.699211 203.839478,105.453171 204.624542,104.056229 
z"/>
<path fill="#AEB2B6" opacity="1.000000" stroke="none" 
	d="
M189.580139,135.956375 
	C189.453613,136.818573 188.965439,137.734268 188.188477,138.797424 
	C188.339279,137.966568 188.778870,136.988205 189.580139,135.956375 
z"/>
<path fill="#AEB2B6" opacity="1.000000" stroke="none" 
	d="
M206.658569,143.108643 
	C206.473679,143.695312 205.947220,144.223984 205.152786,144.855408 
	C205.362213,144.322311 205.839600,143.686478 206.658569,143.108643 
z"/>
<path fill="#AEB2B6" opacity="1.000000" stroke="none" 
	d="
M211.618652,138.942474 
	C211.451706,139.492035 210.945496,140.098999 210.162048,140.832062 
	C210.349670,140.305389 210.814529,139.652634 211.618652,138.942474 
z"/>
<path fill="#AEB2B6" opacity="1.000000" stroke="none" 
	d="
M225.262909,89.855240 
	C225.177811,89.636436 225.354477,89.450745 225.688141,89.150146 
	C225.726532,89.308403 225.619705,89.592781 225.262909,89.855240 
z"/>
<path fill="#AEB2B6" opacity="1.000000" stroke="none" 
	d="
M208.737122,141.144745 
	C208.822189,141.363541 208.645523,141.549225 208.311859,141.849823 
	C208.273499,141.691574 208.380325,141.407211 208.737122,141.144745 
z"/>
<path fill="#AEB2B6" opacity="1.000000" stroke="none" 
	d="
M225.830322,72.719482 
	C225.580948,72.894264 225.328537,72.789330 224.701401,72.513367 
	C224.826874,72.374802 225.327087,72.407280 225.830322,72.719482 
z"/>
<path fill="#AEB2B6" opacity="1.000000" stroke="none" 
	d="
M228.855240,74.737091 
	C228.636444,74.822182 228.450760,74.645523 228.150177,74.311874 
	C228.308411,74.273491 228.592773,74.380318 228.855240,74.737091 
z"/>
<path fill="#AEB2B6" opacity="1.000000" stroke="none" 
	d="
M210.262894,120.855240 
	C210.177811,120.636436 210.354477,120.450745 210.688141,120.150146 
	C210.726517,120.308403 210.619690,120.592781 210.262894,120.855240 
z"/>
<path fill="#AEB2B6" opacity="1.000000" stroke="none" 
	d="
M208.262894,124.855240 
	C208.177811,124.636436 208.354477,124.450745 208.688141,124.150146 
	C208.726517,124.308403 208.619690,124.592773 208.262894,124.855240 
z"/>
<path fill="#AEB2B6" opacity="1.000000" stroke="none" 
	d="
M206.262878,128.855255 
	C206.177811,128.636459 206.354477,128.450775 206.688141,128.150177 
	C206.726501,128.308426 206.619675,128.592789 206.262878,128.855255 
z"/>
<path fill="#AEB2B6" opacity="1.000000" stroke="none" 
	d="
M180.144745,174.262878 
	C180.363541,174.177811 180.549225,174.354477 180.849823,174.688141 
	C180.691574,174.726517 180.407211,174.619690 180.144745,174.262878 
z"/>
<path fill="#AEB2B6" opacity="1.000000" stroke="none" 
	d="
M187.985748,173.282303 
	C188.090607,173.039108 188.295380,173.035538 188.807343,173.037155 
	C188.771591,173.202194 188.428619,173.362076 187.985748,173.282303 
z"/>
<path fill="#AEB2B6" opacity="1.000000" stroke="none" 
	d="
M202.262878,163.855255 
	C202.177811,163.636459 202.354477,163.450775 202.688141,163.150177 
	C202.726517,163.308426 202.619690,163.592804 202.262878,163.855255 
z"/>
<path fill="#AEB2B6" opacity="1.000000" stroke="none" 
	d="
M219.262894,150.855255 
	C219.177811,150.636459 219.354477,150.450775 219.688141,150.150177 
	C219.726517,150.308426 219.619690,150.592804 219.262894,150.855255 
z"/>
<path fill="#AEB2B6" opacity="1.000000" stroke="none" 
	d="
M203.737106,145.144745 
	C203.822189,145.363541 203.645523,145.549225 203.311859,145.849823 
	C203.273483,145.691574 203.380310,145.407196 203.737106,145.144745 
z"/>
<path fill="#212529" opacity="1.000000" stroke="none" 
	d="
M329.001770,705.192017 
	C327.974487,718.602722 326.948456,731.544556 325.903198,744.729004 
	C246.983032,744.729004 168.382965,744.729004 89.092110,744.729004 
	C66.052261,564.074951 42.997150,383.301178 19.904247,202.231079 
	C137.393463,202.231079 254.334763,202.231079 372.087616,202.231079 
	C371.699890,209.152313 371.443939,216.003021 370.893555,222.830017 
	C370.445709,228.384689 369.480896,233.897629 369.031464,239.452225 
	C367.609985,257.021423 366.370544,274.605286 364.966522,292.175964 
	C364.062408,303.490295 363.044556,314.796295 361.985382,326.097351 
	C360.374939,343.280151 358.597137,360.447662 357.062073,377.636993 
	C356.196960,387.324615 355.813721,397.054962 354.966492,406.744507 
	C353.778442,420.332397 352.276611,433.892700 351.069916,447.479095 
	C350.238770,456.836670 349.790924,466.228149 348.973999,475.587219 
	C347.759033,489.505859 346.302673,503.403351 345.077606,517.321167 
	C344.268402,526.514343 343.779266,535.735596 342.978058,544.929626 
	C341.750763,559.013611 340.341125,573.081726 339.080811,587.162964 
	C338.317291,595.693604 337.729218,604.239807 336.991699,612.772949 
	C335.702789,627.685303 334.306335,642.588501 333.058167,657.504211 
	C332.274689,666.866577 331.753754,676.250793 330.974274,685.613525 
	C330.443085,691.993896 329.668671,698.354004 329.001770,705.192017 
M71.000000,528.502991 
	C71.679955,535.536865 72.210831,542.589600 73.093880,549.597839 
	C73.654099,554.044067 75.908867,556.133972 81.046593,556.122925 
	C162.541321,555.948120 244.036514,556.000000 325.531616,556.000000 
	C327.281555,556.000000 329.031494,556.000000 330.720886,556.000000 
	C330.720886,548.629211 330.720886,542.031433 330.720886,534.901978 
	C252.045547,534.901978 173.647324,534.901978 94.965034,534.901978 
	C94.279732,526.362183 93.675461,518.329041 92.975121,510.304199 
	C92.589493,505.885498 92.346344,501.421204 91.494865,497.084290 
	C90.297958,490.988007 90.848305,490.003235 96.931778,490.002686 
	C147.928711,489.998016 198.925644,490.000000 249.922577,490.000000 
	C251.850189,490.000000 253.777786,490.000000 255.581604,490.000000 
	C255.581604,482.916473 255.581604,476.531860 255.581604,469.797302 
	C199.887100,469.797302 144.610260,469.797302 89.044167,469.797302 
	C87.581848,454.147614 86.151390,438.838837 84.671402,423.000000 
	C87.473137,423.000000 89.433220,423.000000 91.393311,423.000000 
	C172.221786,423.000000 253.050247,423.000183 333.878723,422.998749 
	C335.378448,422.998718 336.953003,423.260864 338.355896,422.887238 
	C339.639343,422.545410 341.628998,421.649719 341.772858,420.752136 
	C342.745514,414.684540 343.310303,408.551575 344.075928,401.835571 
	C298.053253,401.835571 252.662247,401.835571 207.251648,401.835571 
	C207.251648,346.683960 207.251648,292.088715 207.251648,237.000000 
	C209.449524,237.000000 211.403534,237.000000 213.357529,237.000000 
	C260.021393,237.000000 306.685242,237.000275 353.349121,236.998581 
	C354.682098,236.998535 356.125244,237.290314 357.314697,236.871506 
	C358.344299,236.508957 359.769806,235.388123 359.846649,234.500778 
	C360.453735,227.492981 360.779327,220.460831 361.196045,213.358627 
	C251.019760,213.358627 141.638000,213.358627 31.769796,213.358627 
	C32.198143,219.492599 33.042915,225.248199 32.864983,230.972015 
	C32.712170,235.887680 34.364975,237.113556 39.117134,237.097565 
	C86.780388,236.937057 134.444397,237.000015 182.108200,237.000031 
	C184.017929,237.000031 185.927643,237.000015 187.696823,237.000015 
	C187.696823,292.419434 187.696823,347.014954 187.696823,402.000000 
	C185.436768,402.000000 183.466751,401.999969 181.496750,401.999969 
	C142.332443,402.000000 103.167702,402.085999 64.004349,401.891907 
	C59.075256,401.867462 57.401798,403.399902 57.971397,408.139526 
	C59.068111,417.265228 60.048069,426.405823 60.983135,435.549805 
	C62.370426,449.115997 63.561974,462.703003 65.046104,476.258240 
	C66.920586,493.378601 69.005386,510.475891 71.000000,528.502991 
M92.466660,677.965698 
	C94.738068,695.816223 97.009468,713.666809 99.306076,731.715454 
	C106.165100,731.715454 112.899895,731.715454 120.231133,731.715454 
	C118.089943,712.375244 115.986084,693.372253 113.924568,674.751770 
	C137.670197,664.012939 160.858124,653.526306 184.449295,642.857300 
	C193.090622,650.860718 201.745865,659.004883 210.540680,666.995483 
	C227.646912,682.537415 244.829514,697.995239 261.984558,713.483398 
	C268.846222,719.678284 275.673279,725.913086 282.630737,731.998657 
	C283.784851,733.008240 285.516876,733.869263 287.002258,733.902954 
	C295.093506,734.086914 303.191132,733.990417 311.286560,733.990417 
	C311.589874,733.563599 311.893188,733.136780 312.196533,732.709961 
	C302.316711,719.948242 289.170624,710.276672 278.010223,698.739563 
	C266.848877,687.201416 254.388138,676.924805 243.147995,665.457031 
	C231.784424,653.863403 221.219131,641.487244 211.032806,630.257202 
	C216.632950,628.023621 224.858139,624.929810 232.934830,621.487549 
	C259.012543,610.373108 285.050812,599.165344 311.056091,587.882629 
	C313.633636,586.764221 315.881226,584.885254 318.281921,583.359314 
	C318.043549,582.906189 317.805145,582.453125 317.566772,582.000000 
	C315.597168,582.000000 313.627563,582.000000 311.657959,582.000000 
	C262.513153,582.000000 213.368347,582.000000 164.223541,582.000000 
	C138.235092,582.000061 112.246651,581.991028 86.258224,582.007690 
	C80.875511,582.011108 80.595459,582.759460 81.558601,588.232422 
	C82.665306,594.521179 83.261932,600.903015 83.987450,607.254944 
	C85.383827,619.480286 86.673096,631.717957 88.085518,643.941467 
	C89.364777,655.012329 90.748856,666.071228 92.466660,677.965698 
z"/>
<path fill="#212529" opacity="1.000000" stroke="none" 
	d="
M309.226379,121.263321 
	C320.791260,107.335579 334.180695,96.337776 350.373657,88.947586 
	C352.272888,88.080818 354.348755,87.270126 356.391724,87.125427 
	C359.599792,86.898232 362.066498,87.440338 363.205017,91.662560 
	C365.427307,99.904045 361.912476,106.606674 358.241547,113.031746 
	C352.068787,123.835571 342.736145,131.717239 332.067017,137.958542 
	C320.795441,144.552231 309.307465,150.702255 296.552124,154.065125 
	C295.268738,154.403488 294.206726,155.611755 292.923737,155.913177 
	C291.520050,156.242966 289.979065,155.988205 286.804413,155.988205 
	C290.146942,150.399338 292.793549,145.653854 295.748718,141.108978 
	C300.037964,134.512329 304.549957,128.060547 309.226379,121.263321 
z"/>
<path fill="#AEB2B6" opacity="1.000000" stroke="none" 
	d="
M70.999725,528.043091 
	C69.005386,510.475891 66.920586,493.378601 65.046104,476.258240 
	C63.561974,462.703003 62.370426,449.115997 60.983135,435.549805 
	C60.048069,426.405823 59.068111,417.265228 57.971397,408.139526 
	C57.401798,403.399902 59.075256,401.867462 64.004349,401.891907 
	C103.167702,402.085999 142.332443,402.000000 181.496750,401.999969 
	C183.466751,401.999969 185.436768,402.000000 187.696823,402.000000 
	C187.696823,347.014954 187.696823,292.419434 187.696823,237.000015 
	C185.927643,237.000015 184.017929,237.000031 182.108200,237.000031 
	C134.444397,237.000015 86.780388,236.937057 39.117134,237.097565 
	C34.364975,237.113556 32.712170,235.887680 32.864983,230.972015 
	C33.042915,225.248199 32.198143,219.492599 31.769796,213.358627 
	C141.638000,213.358627 251.019760,213.358627 361.196045,213.358627 
	C360.779327,220.460831 360.453735,227.492981 359.846649,234.500778 
	C359.769806,235.388123 358.344299,236.508957 357.314697,236.871506 
	C356.125244,237.290314 354.682098,236.998535 353.349121,236.998581 
	C306.685242,237.000275 260.021393,237.000000 213.357529,237.000000 
	C211.403534,237.000000 209.449524,237.000000 207.251648,237.000000 
	C207.251648,292.088715 207.251648,346.683960 207.251648,401.835571 
	C252.662247,401.835571 298.053253,401.835571 344.075928,401.835571 
	C343.310303,408.551575 342.745514,414.684540 341.772858,420.752136 
	C341.628998,421.649719 339.639343,422.545410 338.355896,422.887238 
	C336.953003,423.260864 335.378448,422.998718 333.878723,422.998749 
	C253.050247,423.000183 172.221786,423.000000 91.393311,423.000000 
	C89.433220,423.000000 87.473137,423.000000 84.671402,423.000000 
	C86.151390,438.838837 87.581848,454.147614 89.044167,469.797302 
	C144.610260,469.797302 199.887100,469.797302 255.581604,469.797302 
	C255.581604,476.531860 255.581604,482.916473 255.581604,490.000000 
	C253.777786,490.000000 251.850189,490.000000 249.922577,490.000000 
	C198.925644,490.000000 147.928711,489.998016 96.931778,490.002686 
	C90.848305,490.003235 90.297958,490.988007 91.494865,497.084290 
	C92.346344,501.421204 92.589493,505.885498 92.975121,510.304199 
	C93.675461,518.329041 94.279732,526.362183 94.965034,534.901978 
	C173.647324,534.901978 252.045547,534.901978 330.720886,534.901978 
	C330.720886,542.031433 330.720886,548.629211 330.720886,556.000000 
	C329.031494,556.000000 327.281555,556.000000 325.531616,556.000000 
	C244.036514,556.000000 162.541321,555.948120 81.046593,556.122925 
	C75.908867,556.133972 73.654099,554.044067 73.093880,549.597839 
	C72.210831,542.589600 71.679955,535.536865 70.999725,528.043091 
z"/>
<path fill="#AEB2B6" opacity="1.000000" stroke="none" 
	d="
M92.276688,677.550537 
	C90.748856,666.071228 89.364777,655.012329 88.085518,643.941467 
	C86.673096,631.717957 85.383827,619.480286 83.987450,607.254944 
	C83.261932,600.903015 82.665306,594.521179 81.558601,588.232422 
	C80.595459,582.759460 80.875511,582.011108 86.258224,582.007690 
	C112.246651,581.991028 138.235092,582.000061 164.223541,582.000000 
	C213.368347,582.000000 262.513153,582.000000 311.657959,582.000000 
	C313.627563,582.000000 315.597168,582.000000 317.566772,582.000000 
	C317.805145,582.453125 318.043549,582.906189 318.281921,583.359314 
	C315.881226,584.885254 313.633636,586.764221 311.056091,587.882629 
	C285.050812,599.165344 259.012543,610.373108 232.934830,621.487549 
	C224.858139,624.929810 216.632950,628.023621 211.032806,630.257202 
	C221.219131,641.487244 231.784424,653.863403 243.147995,665.457031 
	C254.388138,676.924805 266.848877,687.201416 278.010223,698.739563 
	C289.170624,710.276672 302.316711,719.948242 312.196533,732.709961 
	C311.893188,733.136780 311.589874,733.563599 311.286560,733.990417 
	C303.191132,733.990417 295.093506,734.086914 287.002258,733.902954 
	C285.516876,733.869263 283.784851,733.008240 282.630737,731.998657 
	C275.673279,725.913086 268.846222,719.678284 261.984558,713.483398 
	C244.829514,697.995239 227.646912,682.537415 210.540680,666.995483 
	C201.745865,659.004883 193.090622,650.860718 184.449295,642.857300 
	C160.858124,653.526306 137.670197,664.012939 113.924568,674.751770 
	C115.986084,693.372253 118.089943,712.375244 120.231133,731.715454 
	C112.899895,731.715454 106.165100,731.715454 99.306076,731.715454 
	C97.009468,713.666809 94.738068,695.816223 92.276688,677.550537 
M145.652786,636.076721 
	C159.451202,630.208496 173.376266,624.617737 187.011993,618.393066 
	C200.326294,612.315125 214.369827,607.695190 227.114410,600.424194 
	C226.923553,600.046509 226.732697,599.668884 226.541840,599.291260 
	C186.144409,599.291260 145.746979,599.291260 105.033585,599.291260 
	C105.033585,601.215271 104.903854,602.862427 105.053963,604.483643 
	C106.340675,618.381104 107.776787,632.265564 108.947105,646.172485 
	C109.361008,651.091003 109.863533,651.725098 114.490150,649.757202 
	C124.693741,645.417236 134.833923,640.928162 145.652786,636.076721 
z"/>
<path fill="#212529" opacity="1.000000" stroke="none" 
	d="
M145.326385,636.288330 
	C134.833923,640.928162 124.693741,645.417236 114.490150,649.757202 
	C109.863533,651.725098 109.361008,651.091003 108.947105,646.172485 
	C107.776787,632.265564 106.340675,618.381104 105.053963,604.483643 
	C104.903854,602.862427 105.033585,601.215271 105.033585,599.291260 
	C145.746979,599.291260 186.144409,599.291260 226.541840,599.291260 
	C226.732697,599.668884 226.923553,600.046509 227.114410,600.424194 
	C214.369827,607.695190 200.326294,612.315125 187.011993,618.393066 
	C173.376266,624.617737 159.451202,630.208496 145.326385,636.288330 
z"/>
</svg>