<svg version="1.1" id="Layer_1" xmlns="http://www.w3.org/2000/svg" xmlns:xlink="http://www.w3.org/1999/xlink" x="0px" y="0px"
	 width="100%" viewBox="0 0 389 871" enable-background="new 0 0 389 871" xml:space="preserve">
<path fill="#212529" opacity="1.000000" stroke="none" 
	d="
M390.000000,324.000000 
	C390.000000,507.000000 390.000000,689.500000 390.000000,872.000000 
	C260.333344,872.000000 130.666672,872.000000 1.000000,872.000000 
	C1.000000,581.666687 1.000000,291.333344 1.000000,1.000000 
	C130.666672,1.000000 260.333344,1.000000 390.000000,1.000000 
	C390.000000,108.500000 390.000000,216.000000 390.000000,324.000000 
M270.968964,782.235596 
	C270.040161,779.907349 269.111389,777.579102 268.012939,774.825562 
	C265.149811,776.052185 262.005463,777.399292 258.867462,778.743652 
	C260.541809,781.357361 261.987823,783.150574 262.935089,785.176941 
	C266.307373,792.390930 269.160919,799.868774 272.875916,806.895081 
	C276.510529,813.769348 277.763184,817.211365 272.267761,822.250854 
	C265.997314,828.893311 259.732147,835.540710 253.450668,842.172729 
	C252.537521,843.136780 251.297989,843.878723 250.639801,844.980530 
	C248.880951,847.924866 250.065659,850.507202 252.312439,852.561584 
	C253.102081,853.283691 254.973206,853.986389 255.560242,853.573669 
	C258.833008,851.273071 262.173462,848.920349 264.903015,846.030396 
	C268.895691,841.802856 272.187347,836.916626 276.144775,832.651672 
	C282.322876,825.993408 282.518372,826.121521 287.381714,833.738525 
	C287.452820,833.849854 287.707977,833.839661 287.787140,833.950500 
	C291.309174,838.882202 294.719482,843.897766 298.367981,848.733704 
	C301.045197,852.282104 304.161285,855.411499 309.269867,853.944519 
	C310.247467,853.663818 311.242035,852.928711 311.841400,852.117126 
	C312.057465,851.824585 311.208801,850.640137 310.722198,849.950012 
	C303.622803,839.880615 296.434509,829.872314 289.491364,819.696716 
	C288.792023,818.671753 288.974487,816.272644 289.718933,815.162659 
	C293.936707,808.874084 298.688232,802.937134 302.782623,796.574463 
	C305.670746,792.086426 308.045532,787.217651 310.177185,782.313538 
	C311.322479,779.678711 310.619324,777.191040 307.308594,775.920532 
	C304.343018,774.782471 302.797668,774.554688 301.649628,778.401428 
	C300.524811,782.170532 298.094055,785.600952 295.959442,789.006409 
	C292.291840,794.857544 288.408875,800.573608 284.447113,806.603943 
	C276.993195,799.760254 274.563110,791.007446 270.968964,782.235596 
M91.020500,850.802734 
	C91.958717,851.867065 92.935112,853.844971 93.827293,853.807739 
	C95.750099,853.727356 98.255569,853.142883 99.392570,851.804688 
	C101.553589,849.260925 102.653503,845.843201 104.669731,843.143738 
	C110.555557,835.263000 116.400497,827.320923 122.803871,819.868896 
	C126.853096,815.156433 131.908707,811.315857 136.446671,807.014282 
	C140.962738,802.733643 145.298172,798.256714 149.924713,794.101868 
	C151.326996,792.842529 153.433960,792.367920 155.218155,791.533813 
	C155.704437,791.950928 156.190735,792.367981 156.677017,792.785034 
	C155.115906,796.051331 153.450821,799.272705 152.015106,802.593262 
	C148.934006,809.719299 145.958786,816.891296 142.963425,824.054138 
	C139.719635,831.811035 136.342148,839.518860 133.391205,847.386230 
	C132.694351,849.244202 133.150787,853.434143 133.622772,853.519165 
	C136.430069,854.024719 139.270493,855.064453 141.618439,851.172363 
	C145.848267,844.160828 150.688477,837.400452 156.063538,831.222351 
	C165.763931,820.072937 175.939682,809.327271 186.191437,798.677185 
	C187.882919,796.919983 190.972687,796.508789 193.416275,795.475586 
	C193.703629,795.915344 193.990967,796.355164 194.278320,796.794922 
	C193.885010,797.985779 193.598007,799.225159 193.080200,800.359192 
	C190.748856,805.465027 188.266464,810.503174 185.997559,815.635986 
	C181.868988,824.975769 177.797272,834.341736 173.821625,843.747314 
	C172.501572,846.870300 171.549194,850.148621 170.326920,853.647400 
	C179.297852,854.326477 179.268936,854.315063 182.029999,847.336609 
	C182.964066,844.975708 184.038528,842.666565 185.129227,840.372009 
	C188.721878,832.813965 192.460724,825.323303 195.939285,817.713501 
	C200.402863,807.948914 204.453369,797.990967 209.084198,788.308838 
	C213.159302,779.788452 213.205643,778.868225 205.151306,772.278564 
	C191.444839,783.435059 177.544586,794.749207 163.644333,806.063354 
	C163.250519,805.865845 162.856705,805.668335 162.462891,805.470825 
	C164.937164,798.655701 166.780441,791.518494 170.051315,785.109985 
	C173.827805,777.710754 174.336716,777.633423 168.447159,771.971436 
	C168.092545,771.630493 167.688904,771.340576 167.115738,770.868530 
	C165.917892,771.582153 164.585327,772.195374 163.460220,773.074219 
	C151.335068,782.545105 139.256088,792.075195 127.113571,801.523743 
	C126.209167,802.227478 124.913033,802.427856 123.798988,802.862244 
	C123.508636,802.450256 123.218285,802.038330 122.927940,801.626404 
	C124.955658,797.362061 126.983376,793.097717 129.531494,788.910095 
	C129.632111,788.612915 129.732727,788.315796 129.980286,787.254944 
	C130.323883,786.114441 130.667496,784.973877 131.531509,783.910095 
	C131.632126,783.612915 131.732742,783.315796 131.980438,782.282898 
	C132.026077,781.535217 132.071716,780.787598 132.753845,779.713928 
	C130.884506,777.648376 129.015167,775.582764 127.030586,773.389893 
	C125.497757,775.074280 124.593262,775.692627 124.213593,776.544739 
	C121.082047,783.573303 118.193085,790.713135 114.936119,797.681580 
	C112.519676,802.851501 109.535645,807.753601 107.034088,812.886902 
	C103.452377,820.236755 99.929619,827.623291 96.672356,835.120422 
	C94.568169,839.963501 92.983925,845.032532 91.020500,850.802734 
M199.019211,114.700920 
	C198.675903,115.522835 198.332596,116.344749 197.468796,117.089790 
	C197.368088,117.386978 197.267380,117.684174 197.019073,118.744255 
	C195.675812,121.885056 194.332535,125.025856 192.468765,128.089798 
	C192.368057,128.386993 192.267349,128.684174 192.019196,129.700928 
	C191.675888,130.522842 191.332581,131.344742 190.468765,132.089798 
	C190.368057,132.386993 190.267349,132.684174 190.019196,133.700928 
	C189.675888,134.522842 189.332581,135.344742 188.468781,136.089798 
	C188.368073,136.386993 188.267365,136.684189 188.014084,137.637253 
	C187.672485,138.147049 187.330872,138.656860 186.468781,139.089798 
	C186.368073,139.386993 186.267365,139.684189 186.019196,140.700928 
	C185.675888,141.522842 185.332581,142.344742 184.468765,143.089798 
	C184.368057,143.386993 184.267349,143.684174 184.018921,144.755219 
	C181.395676,150.956619 178.918533,157.225494 176.096970,163.335312 
	C174.265396,167.301376 179.039536,175.842682 183.338470,175.721329 
	C183.933624,175.704529 184.530624,175.269455 185.102402,174.979904 
	C197.047607,168.930862 206.882248,159.899338 217.466492,151.939972 
	C221.402298,148.980225 224.819275,145.338242 228.631607,142.200272 
	C229.411865,141.558044 231.025391,141.414948 232.012863,141.751526 
	C232.515533,141.922897 232.976135,143.907333 232.612534,144.670425 
	C228.761749,152.752380 224.800308,160.783524 220.739944,168.762802 
	C218.969864,172.241272 219.868210,174.842743 223.510132,176.230316 
	C225.558441,177.010712 227.516693,178.027481 229.837524,179.084396 
	C233.635300,171.194748 237.411514,163.455521 241.094070,155.671997 
	C245.390640,146.590714 249.695374,137.511337 253.827057,128.354645 
	C257.108398,121.082458 259.972473,113.620110 263.322601,106.381401 
	C266.287964,99.973999 269.477356,93.652298 272.912994,87.485039 
	C277.309265,79.593384 276.740204,77.258698 268.596985,73.233910 
	C267.615265,72.748703 266.567108,72.397858 265.718292,72.053169 
	C251.525284,97.932823 232.445892,119.516457 210.468781,139.089798 
	C210.368073,139.386993 210.267365,139.684189 209.948929,140.527893 
	C209.629044,140.740814 209.309158,140.953735 208.468765,141.089798 
	C208.368057,141.386993 208.267365,141.684174 207.884857,142.592880 
	C207.252991,142.784134 206.621140,142.975388 205.468765,143.089798 
	C205.368057,143.386993 205.267365,143.684174 204.948914,144.527878 
	C204.629028,144.740799 204.309143,144.953720 203.468765,145.089798 
	C203.368073,145.386993 203.267365,145.684174 202.862213,146.615631 
	C201.640106,147.306152 200.417999,147.996689 198.290100,149.199036 
	C198.467026,147.238815 198.291290,145.861450 198.744171,144.737320 
	C200.829269,139.561676 202.880157,134.354263 205.326813,129.345566 
	C212.529358,114.600746 219.819885,99.896942 227.268143,85.274971 
	C230.791245,78.358650 228.755798,73.056427 220.468796,70.089790 
	C220.368088,70.386978 220.267365,70.684174 220.014099,71.637245 
	C219.672485,72.147049 219.330887,72.656853 218.468796,73.089790 
	C218.368088,73.386986 218.267380,73.684174 218.019196,74.700920 
	C217.675903,75.522835 217.332596,76.344749 216.468796,77.089790 
	C216.368088,77.386986 216.267380,77.684174 216.019180,78.700920 
	C215.675888,79.522835 215.332581,80.344749 214.468796,81.089790 
	C214.368088,81.386986 214.267380,81.684174 214.019180,82.700920 
	C213.675888,83.522835 213.332581,84.344749 212.468796,85.089790 
	C212.368088,85.386986 212.267380,85.684174 212.018967,86.748077 
	C208.009079,95.554268 203.999176,104.360466 199.468796,113.089790 
	C199.368088,113.386978 199.267365,113.684174 199.019211,114.700920 
M371.999207,303.281311 
	C372.678650,292.931061 373.200165,282.567383 374.076447,272.233826 
	C375.239349,258.519653 376.781464,244.837799 377.965546,231.125214 
	C378.814758,221.291153 379.205566,211.417267 380.070923,201.584915 
	C380.555634,196.077545 379.845825,194.767212 374.403229,194.041183 
	C373.092926,193.866394 371.740753,194.000671 370.407837,194.000656 
	C305.758362,193.999893 241.108871,194.000000 176.459381,194.000000 
	C123.973328,194.000000 71.487274,193.998856 19.001223,194.001450 
	C12.301554,194.001770 11.613111,194.339157 12.093760,201.129028 
	C12.786453,210.914276 14.020392,220.666245 15.207012,230.410049 
	C16.350000,239.795609 17.792559,249.144379 18.981024,258.524811 
	C20.111042,267.443909 21.005762,276.392883 22.144972,285.310699 
	C23.342844,294.687683 24.765453,304.035858 25.983660,313.410431 
	C27.162460,322.481720 28.155663,331.577118 29.323357,340.649933 
	C30.488865,349.705750 31.836195,358.738281 32.981453,367.796539 
	C34.149967,377.038757 35.104683,386.307983 36.272717,395.550262 
	C37.437885,404.769928 38.814976,413.962799 39.982040,423.182220 
	C41.131477,432.262390 42.046223,441.372528 43.223000,450.448914 
	C44.732132,462.088684 46.478134,473.697815 47.974472,485.339111 
	C49.120808,494.257446 49.936466,503.218353 51.085827,512.136230 
	C52.272869,521.346558 53.793976,530.513977 54.968464,539.725708 
	C56.126583,548.809143 56.931274,557.937439 58.075920,567.022766 
	C59.625053,579.318665 61.408127,591.584900 62.980885,603.877991 
	C64.101082,612.633728 64.938858,621.425903 66.087921,630.177490 
	C67.275215,639.220337 68.813103,648.217712 69.964424,657.264648 
	C71.141449,666.513428 71.888039,675.817322 73.090630,685.062317 
	C74.582611,696.532227 76.501625,707.947083 77.954041,719.421448 
	C79.349274,730.444092 80.384193,741.512390 81.599937,752.768921 
	C165.492996,752.768921 249.541733,752.768921 333.254425,752.768921 
	C334.518341,738.786499 335.786163,725.068298 336.991577,711.344604 
	C338.355652,695.814026 339.657806,680.278076 340.997925,664.745361 
	C342.323792,649.378052 343.666260,634.012085 344.995941,618.645081 
	C346.000336,607.037048 347.002991,595.429016 347.994080,583.819885 
	C349.334351,568.120300 350.662781,552.419800 351.996338,536.719666 
	C353.329895,521.019714 354.658417,505.319336 355.998718,489.619965 
	C356.989777,478.010864 357.992371,466.402710 358.996796,454.794769 
	C360.326477,439.427734 361.674194,424.062286 362.993408,408.694336 
	C364.341003,392.995422 365.734039,377.299927 366.976044,361.592560 
	C368.077759,347.659454 368.922363,333.705872 370.040649,319.774200 
	C370.458344,314.570465 371.329010,309.403107 371.999207,303.281311 
M341.587189,44.912888 
	C343.988861,40.511803 346.257202,36.031075 348.825684,31.729607 
	C352.106445,26.235374 348.561890,19.285891 342.136261,19.071152 
	C341.441071,19.047916 340.416626,19.723898 340.053589,20.364027 
	C337.169800,25.449080 334.461548,30.633383 331.600220,35.731556 
	C324.413513,48.536476 317.041260,61.239204 310.000488,74.123398 
	C304.694153,83.833702 299.863861,93.802872 294.679871,103.581619 
	C288.551514,115.141792 282.100372,126.533386 276.108429,138.162552 
	C271.092865,147.896744 266.470032,157.836807 261.875549,167.779160 
	C261.391998,168.825577 261.793518,171.206589 262.607513,171.761902 
	C265.639526,173.830322 269.014923,175.395355 271.782928,176.890778 
	C274.293121,174.203766 276.511108,171.829514 277.833496,170.413971 
	C281.364502,171.550095 283.798004,173.221924 285.740143,172.772141 
	C289.729187,171.848312 293.493469,169.873932 297.280609,168.176605 
	C303.243896,165.503952 309.066986,162.504028 315.096893,159.997513 
	C328.082672,154.599579 340.686127,148.384674 350.784882,138.498642 
	C360.242371,129.240326 367.987671,118.615654 372.183014,105.676727 
	C374.639191,98.101562 378.041565,91.045906 374.131866,82.762756 
	C371.291901,76.746025 363.340027,72.335709 357.776062,74.605103 
	C354.086975,76.109772 350.268799,77.297241 346.575958,78.793419 
	C335.927307,83.107742 326.878601,89.799683 318.597168,97.662712 
	C316.285767,99.857323 313.617645,101.676254 311.113190,103.667534 
	C310.485443,103.118225 309.857697,102.568924 309.229950,102.019623 
	C318.457703,82.423538 329.698212,63.909012 341.587189,44.912888 
M91.423515,168.051407 
	C109.855667,157.528839 121.462906,141.652435 128.841537,122.500862 
	C125.563446,120.462509 123.525757,118.844353 121.212296,117.906357 
	C120.070633,117.443466 117.657372,117.728813 117.117561,118.539719 
	C111.827972,126.485657 107.258980,134.942352 101.617218,142.615738 
	C92.412918,155.134521 80.498291,163.139130 64.049263,162.018478 
	C62.059067,161.882889 60.008121,161.732483 58.060276,162.049469 
	C51.885178,163.054413 42.594189,152.753174 42.053467,147.478256 
	C41.069996,137.884171 42.505676,128.459091 45.348614,119.328934 
	C49.763550,105.150284 57.422062,92.553596 66.028862,80.648483 
	C75.708939,67.258789 86.677101,54.936317 100.266029,45.247463 
	C110.357582,38.052219 121.146065,32.351891 133.463425,29.989403 
	C139.291153,28.871637 145.119171,27.755539 151.697372,26.494896 
	C150.754211,22.075872 149.899719,18.072336 148.851318,13.160213 
	C142.784775,14.176284 137.301483,14.857711 131.932678,16.053205 
	C125.055557,17.584557 117.616417,18.318214 111.593658,21.570229 
	C101.650337,26.939157 92.056610,33.342934 83.386566,40.591602 
	C70.442024,51.413994 59.700970,64.570023 49.820625,78.177788 
	C41.630817,89.457245 35.223591,101.774155 31.454048,115.570114 
	C28.764362,125.413979 28.954899,135.126266 29.187021,144.930237 
	C29.282225,148.951218 30.761063,153.283157 32.731747,156.855042 
	C40.277622,170.532013 53.250870,175.190628 67.683929,174.670380 
	C75.483383,174.389236 83.161362,170.737823 91.423515,168.051407 
M172.927185,84.260536 
	C172.312103,84.749138 171.382721,85.111877 171.129089,85.745224 
	C167.342667,95.199837 164.258759,104.994255 159.751602,114.085014 
	C155.408600,122.844612 151.858398,131.775589 148.860489,141.044800 
	C146.609375,148.005005 143.558624,154.713226 140.719482,161.472977 
	C139.726349,163.837524 138.302231,166.021057 137.074921,168.287247 
	C139.605270,169.618393 142.132126,170.956268 144.668625,172.275604 
	C145.244095,172.574936 145.898529,172.739227 146.438828,173.086639 
	C149.287277,174.918213 150.317947,173.907455 151.093613,170.813171 
	C152.177017,166.491211 153.749496,162.265152 155.424927,158.124390 
	C158.149536,151.390610 161.311066,144.830811 163.945572,138.064178 
	C166.545151,131.387299 168.300201,124.360008 171.183105,117.820312 
	C175.054031,109.039360 179.798721,100.648201 183.900665,91.963295 
	C188.882828,81.414749 193.393326,70.641312 198.468216,60.139301 
	C202.936813,50.891998 207.936691,41.902534 212.638336,32.766468 
	C218.582870,21.215263 218.485840,21.352299 208.556015,16.809008 
	C205.746902,15.523726 204.814606,16.227577 203.731781,18.663858 
	C201.605362,23.448162 199.207291,28.110886 196.984085,32.853203 
	C191.881775,43.737049 186.853348,54.655647 181.722519,65.525970 
	C178.888016,71.531197 175.907364,77.467453 172.927185,84.260536 
M239.932358,776.507141 
	C236.834656,783.622864 233.827164,790.779480 230.621445,797.846252 
	C222.670700,815.372620 213.777557,832.515076 208.571014,850.750916 
	C210.159149,851.914185 211.035507,853.000000 212.086746,853.209778 
	C213.305298,853.453003 215.477615,853.363403 215.858261,852.666199 
	C219.392136,846.193481 223.012451,839.718567 225.844910,832.926208 
	C228.719086,826.033752 230.270386,818.582214 233.236511,811.737549 
	C236.910416,803.259460 241.548233,795.203735 245.534805,786.853333 
	C246.565460,784.694458 247.901062,781.384155 246.987488,779.908813 
	C245.728912,777.876282 242.466309,777.084656 239.932358,776.507141 
z"/>
<path fill="#DEE2E6" opacity="1.000000" stroke="none" 
	d="
M371.996155,303.750244 
	C371.329010,309.403107 370.458344,314.570465 370.040649,319.774200 
	C368.922363,333.705872 368.077759,347.659454 366.976044,361.592560 
	C365.734039,377.299927 364.341003,392.995422 362.993408,408.694336 
	C361.674194,424.062286 360.326477,439.427734 358.996796,454.794769 
	C357.992371,466.402710 356.989777,478.010864 355.998718,489.619965 
	C354.658417,505.319336 353.329895,521.019714 351.996338,536.719666 
	C350.662781,552.419800 349.334351,568.120300 347.994080,583.819885 
	C347.002991,595.429016 346.000336,607.037048 344.995941,618.645081 
	C343.666260,634.012085 342.323792,649.378052 340.997925,664.745361 
	C339.657806,680.278076 338.355652,695.814026 336.991577,711.344604 
	C335.786163,725.068298 334.518341,738.786499 333.254425,752.768921 
	C249.541733,752.768921 165.492996,752.768921 81.599937,752.768921 
	C80.384193,741.512390 79.349274,730.444092 77.954041,719.421448 
	C76.501625,707.947083 74.582611,696.532227 73.090630,685.062317 
	C71.888039,675.817322 71.141449,666.513428 69.964424,657.264648 
	C68.813103,648.217712 67.275215,639.220337 66.087921,630.177490 
	C64.938858,621.425903 64.101082,612.633728 62.980885,603.877991 
	C61.408127,591.584900 59.625053,579.318665 58.075920,567.022766 
	C56.931274,557.937439 56.126583,548.809143 54.968464,539.725708 
	C53.793976,530.513977 52.272869,521.346558 51.085827,512.136230 
	C49.936466,503.218353 49.120808,494.257446 47.974472,485.339111 
	C46.478134,473.697815 44.732132,462.088684 43.223000,450.448914 
	C42.046223,441.372528 41.131477,432.262390 39.982040,423.182220 
	C38.814976,413.962799 37.437885,404.769928 36.272717,395.550262 
	C35.104683,386.307983 34.149967,377.038757 32.981453,367.796539 
	C31.836195,358.738281 30.488865,349.705750 29.323357,340.649933 
	C28.155663,331.577118 27.162460,322.481720 25.983660,313.410431 
	C24.765453,304.035858 23.342844,294.687683 22.144972,285.310699 
	C21.005762,276.392883 20.111042,267.443909 18.981024,258.524811 
	C17.792559,249.144379 16.350000,239.795609 15.207012,230.410049 
	C14.020392,220.666245 12.786453,210.914276 12.093760,201.129028 
	C11.613111,194.339157 12.301554,194.001770 19.001223,194.001450 
	C71.487274,193.998856 123.973328,194.000000 176.459381,194.000000 
	C241.108871,194.000000 305.758362,193.999893 370.407837,194.000656 
	C371.740753,194.000671 373.092926,193.866394 374.403229,194.041183 
	C379.845825,194.767212 380.555634,196.077545 380.070923,201.584915 
	C379.205566,211.417267 378.814758,221.291153 377.965546,231.125214 
	C376.781464,244.837799 375.239349,258.519653 374.076447,272.233826 
	C373.200165,282.567383 372.678650,292.931061 371.996155,303.750244 
M266.500000,202.000000 
	C184.392960,202.000000 102.285934,202.000000 20.019735,202.000000 
	C20.410486,206.455719 20.623009,210.377106 21.121056,214.261902 
	C22.344141,223.802002 23.767036,233.316589 24.980349,242.857849 
	C26.094067,251.615921 26.958511,260.405731 28.077484,269.163055 
	C29.648344,281.456970 31.385670,293.729553 32.989281,306.019379 
	C34.088326,314.442291 35.028599,322.885956 36.135189,331.307800 
	C37.367004,340.682648 38.787434,350.033081 39.976582,359.413025 
	C41.107571,368.334290 41.954578,377.291656 43.094288,386.211700 
	C44.292336,395.588348 45.778320,404.928284 46.974106,414.305206 
	C48.111687,423.225708 48.938618,432.185883 50.079681,441.105896 
	C51.631413,453.236237 53.419178,465.336334 54.977631,477.465851 
	C56.123524,486.384399 56.987022,495.339050 58.116928,504.259827 
	C59.325516,513.801819 60.767078,523.314331 61.980412,532.855835 
	C63.094097,541.613831 63.937790,550.406677 65.086861,559.159729 
	C66.274132,568.203552 67.812965,577.201843 68.964348,586.249817 
	C70.141426,595.499573 70.894333,604.803528 72.087860,614.050903 
	C73.589745,625.687378 75.469185,637.275146 76.966034,648.912170 
	C78.467506,660.585266 79.609444,672.304382 81.073006,683.982788 
	C82.614250,696.281006 84.347122,708.555237 86.001251,720.839294 
	C87.080750,728.855896 88.169098,736.871277 89.219154,744.633423 
	C168.448242,744.633423 247.169830,744.633423 325.677124,744.633423 
	C327.140564,729.557129 328.626617,714.868713 329.974487,700.167664 
	C331.068695,688.233154 331.975494,676.281738 333.004395,664.341125 
	C334.314453,649.137451 335.680359,633.938538 336.991669,618.735046 
	C338.345825,603.034973 339.658325,587.331299 340.998627,571.630005 
	C341.989746,560.019592 343.003052,548.411194 343.994171,536.800781 
	C345.334442,521.099670 346.657928,505.397156 347.998230,489.696075 
	C348.989349,478.085693 349.991852,466.476288 350.996277,454.867065 
	C352.325989,439.498352 353.673737,424.131226 354.992981,408.761597 
	C356.340637,393.060974 357.658142,377.357788 358.998474,361.656525 
	C359.989502,350.046326 360.992157,338.437073 361.996582,326.828033 
	C363.326294,311.459320 364.743195,296.097626 365.972565,280.720917 
	C367.086578,266.787323 367.926788,252.831833 369.037292,238.897919 
	C369.465240,233.528366 370.476593,228.205658 370.915527,222.836533 
	C371.473816,216.008057 371.720642,209.154129 372.119049,202.000000 
	C336.771606,202.000000 302.135803,202.000000 266.500000,202.000000 
z"/>
<path fill="#DEE2E6" opacity="1.000000" stroke="none" 
	d="
M341.311310,45.179668 
	C329.698212,63.909012 318.457703,82.423538 309.229950,102.019623 
	C309.857697,102.568924 310.485443,103.118225 311.113190,103.667534 
	C313.617645,101.676254 316.285767,99.857323 318.597168,97.662712 
	C326.878601,89.799683 335.927307,83.107742 346.575958,78.793419 
	C350.268799,77.297241 354.086975,76.109772 357.776062,74.605103 
	C363.340027,72.335709 371.291901,76.746025 374.131866,82.762756 
	C378.041565,91.045906 374.639191,98.101562 372.183014,105.676727 
	C367.987671,118.615654 360.242371,129.240326 350.784882,138.498642 
	C340.686127,148.384674 328.082672,154.599579 315.096893,159.997513 
	C309.066986,162.504028 303.243896,165.503952 297.280609,168.176605 
	C293.493469,169.873932 289.729187,171.848312 285.740143,172.772141 
	C283.798004,173.221924 281.364502,171.550095 277.833496,170.413971 
	C276.511108,171.829514 274.293121,174.203766 271.782928,176.890778 
	C269.014923,175.395355 265.639526,173.830322 262.607513,171.761902 
	C261.793518,171.206589 261.391998,168.825577 261.875549,167.779160 
	C266.470032,157.836807 271.092865,147.896744 276.108429,138.162552 
	C282.100372,126.533386 288.551514,115.141792 294.679871,103.581619 
	C299.863861,93.802872 304.694153,83.833702 310.000488,74.123398 
	C317.041260,61.239204 324.413513,48.536476 331.600220,35.731556 
	C334.461548,30.633383 337.169800,25.449080 340.053589,20.364027 
	C340.416626,19.723898 341.441071,19.047916 342.136261,19.071152 
	C348.561890,19.285891 352.106445,26.235374 348.825684,31.729607 
	C346.257202,36.031075 343.988861,40.511803 341.311310,45.179668 
M362.479980,101.756310 
	C362.678345,101.584549 362.848022,101.388000 363.725739,100.731300 
	C363.817139,99.411903 364.023376,98.088882 363.981750,96.773689 
	C363.646057,86.164368 358.946564,84.954941 351.708649,88.364395 
	C343.087280,92.425537 334.338135,97.058304 327.220032,103.253731 
	C318.401764,110.928917 310.983551,120.278709 303.392303,129.269608 
	C299.607452,133.752319 296.661102,138.971207 293.567352,143.999771 
	C291.339447,147.620956 289.494781,151.477966 287.479156,155.229782 
	C287.895386,155.693619 288.311615,156.157440 288.727844,156.621277 
	C298.534943,154.046356 308.067322,150.658600 317.479950,145.756302 
	C317.678345,145.584564 317.848022,145.388016 318.707031,145.019196 
	C319.526917,144.675980 320.346771,144.332764 321.479950,143.756302 
	C321.678345,143.584564 321.848022,143.388016 322.707031,143.019196 
	C323.526917,142.675980 324.346771,142.332779 325.479950,141.756302 
	C325.678345,141.584564 325.848022,141.388016 326.707031,141.019196 
	C327.526917,140.675980 328.346771,140.332779 329.479950,139.756302 
	C329.678345,139.584564 329.848022,139.388016 330.641541,138.869247 
	C333.816589,136.909348 336.991608,134.949448 340.479950,132.756302 
	C340.678345,132.584564 340.848022,132.388016 341.532135,131.946854 
	C341.743652,131.627762 341.955139,131.308655 342.479950,130.756302 
	C342.678345,130.584564 342.848022,130.388016 343.611481,129.890289 
	C344.796539,128.923370 345.981598,127.956451 347.479980,126.756310 
	C347.678345,126.584549 347.848022,126.388000 348.532196,125.946854 
	C348.743683,125.627747 348.955170,125.308647 349.479980,124.756310 
	C349.678345,124.584549 349.848022,124.388000 350.606293,123.873360 
	C351.459747,122.578743 352.313171,121.284126 353.479980,119.756310 
	C353.678345,119.584549 353.848022,119.388000 354.532166,118.946846 
	C354.743683,118.627739 354.955170,118.308640 355.479980,117.756310 
	C355.678345,117.584549 355.848022,117.388000 356.652527,116.822136 
	C358.490570,111.877937 360.328613,106.933739 362.479980,101.756310 
z"/>
<path fill="#DEE2E6" opacity="1.000000" stroke="none" 
	d="
M91.158829,168.329132 
	C83.161362,170.737823 75.483383,174.389236 67.683929,174.670380 
	C53.250870,175.190628 40.277622,170.532013 32.731747,156.855042 
	C30.761063,153.283157 29.282225,148.951218 29.187021,144.930237 
	C28.954899,135.126266 28.764362,125.413979 31.454048,115.570114 
	C35.223591,101.774155 41.630817,89.457245 49.820625,78.177788 
	C59.700970,64.570023 70.442024,51.413994 83.386566,40.591602 
	C92.056610,33.342934 101.650337,26.939157 111.593658,21.570229 
	C117.616417,18.318214 125.055557,17.584557 131.932678,16.053205 
	C137.301483,14.857711 142.784775,14.176284 148.851318,13.160213 
	C149.899719,18.072336 150.754211,22.075872 151.697372,26.494896 
	C145.119171,27.755539 139.291153,28.871637 133.463425,29.989403 
	C121.146065,32.351891 110.357582,38.052219 100.266029,45.247463 
	C86.677101,54.936317 75.708939,67.258789 66.028862,80.648483 
	C57.422062,92.553596 49.763550,105.150284 45.348614,119.328934 
	C42.505676,128.459091 41.069996,137.884171 42.053467,147.478256 
	C42.594189,152.753174 51.885178,163.054413 58.060276,162.049469 
	C60.008121,161.732483 62.059067,161.882889 64.049263,162.018478 
	C80.498291,163.139130 92.412918,155.134521 101.617218,142.615738 
	C107.258980,134.942352 111.827972,126.485657 117.117561,118.539719 
	C117.657372,117.728813 120.070633,117.443466 121.212296,117.906357 
	C123.525757,118.844353 125.563446,120.462509 128.841537,122.500862 
	C121.462906,141.652435 109.855667,157.528839 91.158829,168.329132 
z"/>
<path fill="#DEE2E6" opacity="1.000000" stroke="none" 
	d="
M216.989288,77.166664 
	C217.332596,76.344749 217.675903,75.522835 218.249908,74.226440 
	C218.679306,73.582169 218.848862,73.387077 218.989288,73.166664 
	C219.330887,72.656853 219.672485,72.147049 220.247375,71.194595 
	C220.679306,70.582169 220.848862,70.387077 220.989288,70.166664 
	C228.755798,73.056427 230.791245,78.358650 227.268143,85.274971 
	C219.819885,99.896942 212.529358,114.600746 205.326813,129.345566 
	C202.880157,134.354263 200.829269,139.561676 198.744171,144.737320 
	C198.291290,145.861450 198.467026,147.238815 198.290100,149.199036 
	C200.417999,147.996689 201.640106,147.306152 203.171417,146.183792 
	C203.679321,145.582184 203.848862,145.387085 203.989258,145.166656 
	C204.309143,144.953720 204.629028,144.740799 205.214783,144.139923 
	C205.679321,143.582184 205.848862,143.387085 205.989273,143.166656 
	C206.621140,142.975388 207.252991,142.784134 208.182739,142.172424 
	C208.679321,141.582184 208.848862,141.387085 208.989273,141.166656 
	C209.309158,140.953735 209.629044,140.740814 210.214783,140.139923 
	C210.679321,139.582184 210.848862,139.387085 210.989273,139.166656 
	C232.445892,119.516457 251.525284,97.932823 265.718292,72.053169 
	C266.567108,72.397858 267.615265,72.748703 268.596985,73.233910 
	C276.740204,77.258698 277.309265,79.593384 272.912994,87.485039 
	C269.477356,93.652298 266.287964,99.973999 263.322601,106.381401 
	C259.972473,113.620110 257.108398,121.082458 253.827057,128.354645 
	C249.695374,137.511337 245.390640,146.590714 241.094070,155.671997 
	C237.411514,163.455521 233.635300,171.194748 229.837524,179.084396 
	C227.516693,178.027481 225.558441,177.010712 223.510132,176.230316 
	C219.868210,174.842743 218.969864,172.241272 220.739944,168.762802 
	C224.800308,160.783524 228.761749,152.752380 232.612534,144.670425 
	C232.976135,143.907333 232.515533,141.922897 232.012863,141.751526 
	C231.025391,141.414948 229.411865,141.558044 228.631607,142.200272 
	C224.819275,145.338242 221.402298,148.980225 217.466492,151.939972 
	C206.882248,159.899338 197.047607,168.930862 185.102402,174.979904 
	C184.530624,175.269455 183.933624,175.704529 183.338470,175.721329 
	C179.039536,175.842682 174.265396,167.301376 176.096970,163.335312 
	C178.918533,157.225494 181.395676,150.956619 184.249786,144.253586 
	C184.679321,143.582184 184.848862,143.387085 184.989273,143.166656 
	C185.332581,142.344742 185.675888,141.522842 186.249908,140.226440 
	C186.679321,139.582184 186.848862,139.387085 186.989273,139.166656 
	C187.330872,138.656860 187.672485,138.147049 188.247360,137.194611 
	C188.679321,136.582184 188.848862,136.387085 188.989273,136.166656 
	C189.332581,135.344742 189.675888,134.522842 190.249908,133.226440 
	C190.679321,132.582184 190.848862,132.387085 190.989273,132.166656 
	C191.332581,131.344742 191.675888,130.522842 192.249908,129.226440 
	C192.679321,128.582184 192.848862,128.387085 192.989273,128.166656 
	C194.332535,125.025856 195.675812,121.885056 197.249847,118.248108 
	C197.679306,117.582169 197.848862,117.387077 197.989288,117.166664 
	C198.332596,116.344749 198.675903,115.522835 199.249924,114.226440 
	C199.679306,113.582169 199.848862,113.387077 199.989288,113.166664 
	C203.999176,104.360466 208.009079,95.554268 212.249802,86.250015 
	C212.679306,85.582169 212.848862,85.387077 212.989288,85.166664 
	C213.332581,84.344749 213.675888,83.522835 214.249908,82.226440 
	C214.679306,81.582169 214.848862,81.387077 214.989288,81.166664 
	C215.332581,80.344749 215.675888,79.522835 216.249908,78.226440 
	C216.679306,77.582169 216.848862,77.387077 216.989288,77.166664 
z"/>
<path fill="#DEE2E6" opacity="1.000000" stroke="none" 
	d="
M129.011093,788.833374 
	C126.983376,793.097717 124.955658,797.362061 122.927940,801.626404 
	C123.218285,802.038330 123.508636,802.450256 123.798988,802.862244 
	C124.913033,802.427856 126.209167,802.227478 127.113571,801.523743 
	C139.256088,792.075195 151.335068,782.545105 163.460220,773.074219 
	C164.585327,772.195374 165.917892,771.582153 167.115738,770.868530 
	C167.688904,771.340576 168.092545,771.630493 168.447159,771.971436 
	C174.336716,777.633423 173.827805,777.710754 170.051315,785.109985 
	C166.780441,791.518494 164.937164,798.655701 162.462891,805.470825 
	C162.856705,805.668335 163.250519,805.865845 163.644333,806.063354 
	C177.544586,794.749207 191.444839,783.435059 205.151306,772.278564 
	C213.205643,778.868225 213.159302,779.788452 209.084198,788.308838 
	C204.453369,797.990967 200.402863,807.948914 195.939285,817.713501 
	C192.460724,825.323303 188.721878,832.813965 185.129227,840.372009 
	C184.038528,842.666565 182.964066,844.975708 182.029999,847.336609 
	C179.268936,854.315063 179.297852,854.326477 170.326920,853.647400 
	C171.549194,850.148621 172.501572,846.870300 173.821625,843.747314 
	C177.797272,834.341736 181.868988,824.975769 185.997559,815.635986 
	C188.266464,810.503174 190.748856,805.465027 193.080200,800.359192 
	C193.598007,799.225159 193.885010,797.985779 194.278320,796.794922 
	C193.990967,796.355164 193.703629,795.915344 193.416275,795.475586 
	C190.972687,796.508789 187.882919,796.919983 186.191437,798.677185 
	C175.939682,809.327271 165.763931,820.072937 156.063538,831.222351 
	C150.688477,837.400452 145.848267,844.160828 141.618439,851.172363 
	C139.270493,855.064453 136.430069,854.024719 133.622772,853.519165 
	C133.150787,853.434143 132.694351,849.244202 133.391205,847.386230 
	C136.342148,839.518860 139.719635,831.811035 142.963425,824.054138 
	C145.958786,816.891296 148.934006,809.719299 152.015106,802.593262 
	C153.450821,799.272705 155.115906,796.051331 156.677017,792.785034 
	C156.190735,792.367981 155.704437,791.950928 155.218155,791.533813 
	C153.433960,792.367920 151.326996,792.842529 149.924713,794.101868 
	C145.298172,798.256714 140.962738,802.733643 136.446671,807.014282 
	C131.908707,811.315857 126.853096,815.156433 122.803871,819.868896 
	C116.400497,827.320923 110.555557,835.263000 104.669731,843.143738 
	C102.653503,845.843201 101.553589,849.260925 99.392570,851.804688 
	C98.255569,853.142883 95.750099,853.727356 93.827293,853.807739 
	C92.935112,853.844971 91.958717,851.867065 91.479637,850.400024 
	C95.817581,850.616943 96.622627,847.435364 97.752678,845.016663 
	C107.167839,824.865601 116.527191,804.688049 125.783722,784.463745 
	C127.110092,781.565796 128.762604,779.740967 132.117371,780.039917 
	C132.071716,780.787598 132.026077,781.535217 131.749924,782.765442 
	C131.320786,783.417786 131.151352,783.612915 131.011108,783.833374 
	C130.667496,784.973877 130.323883,786.114441 129.749847,787.751465 
	C129.320786,788.417786 129.151352,788.612915 129.011093,788.833374 
z"/>
<path fill="#DEE2E6" opacity="1.000000" stroke="none" 
	d="
M172.959885,83.847664 
	C175.907364,77.467453 178.888016,71.531197 181.722519,65.525970 
	C186.853348,54.655647 191.881775,43.737049 196.984085,32.853203 
	C199.207291,28.110886 201.605362,23.448162 203.731781,18.663858 
	C204.814606,16.227577 205.746902,15.523726 208.556015,16.809008 
	C218.485840,21.352299 218.582870,21.215263 212.638336,32.766468 
	C207.936691,41.902534 202.936813,50.891998 198.468216,60.139301 
	C193.393326,70.641312 188.882828,81.414749 183.900665,91.963295 
	C179.798721,100.648201 175.054031,109.039360 171.183105,117.820312 
	C168.300201,124.360008 166.545151,131.387299 163.945572,138.064178 
	C161.311066,144.830811 158.149536,151.390610 155.424927,158.124390 
	C153.749496,162.265152 152.177017,166.491211 151.093613,170.813171 
	C150.317947,173.907455 149.287277,174.918213 146.438828,173.086639 
	C145.898529,172.739227 145.244095,172.574936 144.668625,172.275604 
	C142.132126,170.956268 139.605270,169.618393 137.074921,168.287247 
	C138.302231,166.021057 139.726349,163.837524 140.719482,161.472977 
	C143.558624,154.713226 146.609375,148.005005 148.860489,141.044800 
	C151.858398,131.775589 155.408600,122.844612 159.751602,114.085014 
	C164.258759,104.994255 167.342667,95.199837 171.129089,85.745224 
	C171.382721,85.111877 172.312103,84.749138 172.959885,83.847664 
z"/>
<path fill="#DEE2E6" opacity="1.000000" stroke="none" 
	d="
M270.833313,783.000366 
	C274.563110,791.007446 276.993195,799.760254 284.447113,806.603943 
	C288.408875,800.573608 292.291840,794.857544 295.959442,789.006409 
	C298.094055,785.600952 300.524811,782.170532 301.649628,778.401428 
	C302.797668,774.554688 304.343018,774.782471 307.308594,775.920532 
	C310.619324,777.191040 311.322479,779.678711 310.177185,782.313538 
	C308.045532,787.217651 305.670746,792.086426 302.782623,796.574463 
	C298.688232,802.937134 293.936707,808.874084 289.718933,815.162659 
	C288.974487,816.272644 288.792023,818.671753 289.491364,819.696716 
	C296.434509,829.872314 303.622803,839.880615 310.722198,849.950012 
	C311.208801,850.640137 312.057465,851.824585 311.841400,852.117126 
	C311.242035,852.928711 310.247467,853.663818 309.269867,853.944519 
	C304.161285,855.411499 301.045197,852.282104 298.367981,848.733704 
	C294.719482,843.897766 291.309174,838.882202 287.787140,833.950500 
	C287.707977,833.839661 287.452820,833.849854 287.381714,833.738525 
	C282.518372,826.121521 282.322876,825.993408 276.144775,832.651672 
	C272.187347,836.916626 268.895691,841.802856 264.903015,846.030396 
	C262.173462,848.920349 258.833008,851.273071 255.560242,853.573669 
	C254.973206,853.986389 253.102081,853.283691 252.312439,852.561584 
	C250.065659,850.507202 248.880951,847.924866 250.639801,844.980530 
	C251.297989,843.878723 252.537521,843.136780 253.450668,842.172729 
	C259.732147,835.540710 265.997314,828.893311 273.010559,822.113403 
	C277.233490,821.787659 282.472168,823.058472 278.257019,816.490967 
	C278.056763,816.178955 278.686798,815.421631 278.708405,814.863098 
	C278.770477,813.258484 279.241577,811.406921 278.626709,810.081604 
	C274.587708,801.375793 270.267578,792.800781 266.153259,784.128967 
	C265.690948,783.154541 265.943054,781.841187 265.837585,780.301331 
	C268.083801,781.514893 269.458557,782.257629 270.833313,783.000366 
z"/>
<path fill="#DEE2E6" opacity="1.000000" stroke="none" 
	d="
M239.997284,776.134277 
	C242.466309,777.084656 245.728912,777.876282 246.987488,779.908813 
	C247.901062,781.384155 246.565460,784.694458 245.534805,786.853333 
	C241.548233,795.203735 236.910416,803.259460 233.236511,811.737549 
	C230.270386,818.582214 228.719086,826.033752 225.844910,832.926208 
	C223.012451,839.718567 219.392136,846.193481 215.858261,852.666199 
	C215.477615,853.363403 213.305298,853.453003 212.086746,853.209778 
	C211.035507,853.000000 210.159149,851.914185 208.571014,850.750916 
	C213.777557,832.515076 222.670700,815.372620 230.621445,797.846252 
	C233.827164,790.779480 236.834656,783.622864 239.997284,776.134277 
z"/>
<path fill="#DEE2E6" opacity="1.000000" stroke="none" 
	d="
M132.435608,779.876953 
	C128.762604,779.740967 127.110092,781.565796 125.783722,784.463745 
	C116.527191,804.688049 107.167839,824.865601 97.752678,845.016663 
	C96.622627,847.435364 95.817581,850.616943 91.552719,849.998840 
	C92.983925,845.032532 94.568169,839.963501 96.672356,835.120422 
	C99.929619,827.623291 103.452377,820.236755 107.034088,812.886902 
	C109.535645,807.753601 112.519676,802.851501 114.936119,797.681580 
	C118.193085,790.713135 121.082047,783.573303 124.213593,776.544739 
	C124.593262,775.692627 125.497757,775.074280 127.030586,773.389893 
	C129.015167,775.582764 130.884506,777.648376 132.435608,779.876953 
z"/>
<path fill="#DEE2E6" opacity="1.000000" stroke="none" 
	d="
M270.901123,782.617981 
	C269.458557,782.257629 268.083801,781.514893 265.837585,780.301331 
	C265.943054,781.841187 265.690948,783.154541 266.153259,784.128967 
	C270.267578,792.800781 274.587708,801.375793 278.626709,810.081604 
	C279.241577,811.406921 278.770477,813.258484 278.708405,814.863098 
	C278.686798,815.421631 278.056763,816.178955 278.257019,816.490967 
	C282.472168,823.058472 277.233490,821.787659 273.319427,821.966797 
	C277.763184,817.211365 276.510529,813.769348 272.875916,806.895081 
	C269.160919,799.868774 266.307373,792.390930 262.935089,785.176941 
	C261.987823,783.150574 260.541809,781.357361 258.867462,778.743652 
	C262.005463,777.399292 265.149811,776.052185 268.012939,774.825562 
	C269.111389,777.579102 270.040161,779.907349 270.901123,782.617981 
z"/>
<path fill="#DEE2E6" opacity="1.000000" stroke="none" 
	d="
M218.729034,73.128227 
	C218.848862,73.387077 218.679306,73.582169 218.323639,73.866653 
	C218.267380,73.684174 218.368088,73.386986 218.729034,73.128227 
z"/>
<path fill="#DEE2E6" opacity="1.000000" stroke="none" 
	d="
M203.729019,145.128235 
	C203.848862,145.387085 203.679321,145.582184 203.323639,145.866669 
	C203.267365,145.684174 203.368073,145.386993 203.729019,145.128235 
z"/>
<path fill="#DEE2E6" opacity="1.000000" stroke="none" 
	d="
M212.729034,85.128227 
	C212.848862,85.387077 212.679306,85.582169 212.323639,85.866653 
	C212.267380,85.684174 212.368088,85.386986 212.729034,85.128227 
z"/>
<path fill="#DEE2E6" opacity="1.000000" stroke="none" 
	d="
M214.729034,81.128227 
	C214.848862,81.387077 214.679306,81.582169 214.323639,81.866653 
	C214.267380,81.684174 214.368088,81.386986 214.729034,81.128227 
z"/>
<path fill="#DEE2E6" opacity="1.000000" stroke="none" 
	d="
M216.729034,77.128227 
	C216.848862,77.387077 216.679306,77.582169 216.323639,77.866653 
	C216.267380,77.684174 216.368088,77.386986 216.729034,77.128227 
z"/>
<path fill="#DEE2E6" opacity="1.000000" stroke="none" 
	d="
M205.729019,143.128235 
	C205.848862,143.387085 205.679321,143.582184 205.323639,143.866669 
	C205.267365,143.684174 205.368057,143.386993 205.729019,143.128235 
z"/>
<path fill="#DEE2E6" opacity="1.000000" stroke="none" 
	d="
M131.271301,783.871704 
	C131.151352,783.612915 131.320786,783.417786 131.676392,783.133301 
	C131.732742,783.315796 131.632126,783.612915 131.271301,783.871704 
z"/>
<path fill="#DEE2E6" opacity="1.000000" stroke="none" 
	d="
M129.271301,788.871704 
	C129.151352,788.612915 129.320786,788.417786 129.676376,788.133301 
	C129.732727,788.315796 129.632111,788.612915 129.271301,788.871704 
z"/>
<path fill="#DEE2E6" opacity="1.000000" stroke="none" 
	d="
M220.729034,70.128227 
	C220.848862,70.387077 220.679306,70.582169 220.323639,70.866653 
	C220.267365,70.684174 220.368088,70.386978 220.729034,70.128227 
z"/>
<path fill="#DEE2E6" opacity="1.000000" stroke="none" 
	d="
M197.729034,117.128227 
	C197.848862,117.387077 197.679306,117.582169 197.323639,117.866653 
	C197.267380,117.684174 197.368088,117.386978 197.729034,117.128227 
z"/>
<path fill="#DEE2E6" opacity="1.000000" stroke="none" 
	d="
M192.729019,128.128235 
	C192.848862,128.387085 192.679321,128.582184 192.323639,128.866669 
	C192.267349,128.684174 192.368057,128.386993 192.729019,128.128235 
z"/>
<path fill="#DEE2E6" opacity="1.000000" stroke="none" 
	d="
M190.729019,132.128235 
	C190.848862,132.387085 190.679321,132.582184 190.323639,132.866669 
	C190.267349,132.684174 190.368057,132.386993 190.729019,132.128235 
z"/>
<path fill="#DEE2E6" opacity="1.000000" stroke="none" 
	d="
M199.729034,113.128227 
	C199.848862,113.387077 199.679306,113.582169 199.323639,113.866653 
	C199.267365,113.684174 199.368088,113.386978 199.729034,113.128227 
z"/>
<path fill="#DEE2E6" opacity="1.000000" stroke="none" 
	d="
M188.729034,136.128235 
	C188.848862,136.387085 188.679321,136.582184 188.323654,136.866669 
	C188.267365,136.684189 188.368073,136.386993 188.729034,136.128235 
z"/>
<path fill="#DEE2E6" opacity="1.000000" stroke="none" 
	d="
M186.729034,139.128235 
	C186.848862,139.387085 186.679321,139.582184 186.323654,139.866669 
	C186.267365,139.684189 186.368073,139.386993 186.729034,139.128235 
z"/>
<path fill="#DEE2E6" opacity="1.000000" stroke="none" 
	d="
M210.729034,139.128235 
	C210.848862,139.387085 210.679321,139.582184 210.323654,139.866669 
	C210.267365,139.684189 210.368073,139.386993 210.729034,139.128235 
z"/>
<path fill="#DEE2E6" opacity="1.000000" stroke="none" 
	d="
M208.729019,141.128235 
	C208.848862,141.387085 208.679321,141.582184 208.323639,141.866669 
	C208.267365,141.684174 208.368057,141.386993 208.729019,141.128235 
z"/>
<path fill="#DEE2E6" opacity="1.000000" stroke="none" 
	d="
M184.729019,143.128235 
	C184.848862,143.387085 184.679321,143.582184 184.323639,143.866669 
	C184.267349,143.684174 184.368057,143.386993 184.729019,143.128235 
z"/>
<path fill="#212529" opacity="1.000000" stroke="none" 
	d="
M267.000000,202.000000 
	C302.135803,202.000000 336.771606,202.000000 372.119049,202.000000 
	C371.720642,209.154129 371.473816,216.008057 370.915527,222.836533 
	C370.476593,228.205658 369.465240,233.528366 369.037292,238.897919 
	C367.926788,252.831833 367.086578,266.787323 365.972565,280.720917 
	C364.743195,296.097626 363.326294,311.459320 361.996582,326.828033 
	C360.992157,338.437073 359.989502,350.046326 358.998474,361.656525 
	C357.658142,377.357788 356.340637,393.060974 354.992981,408.761597 
	C353.673737,424.131226 352.325989,439.498352 350.996277,454.867065 
	C349.991852,466.476288 348.989349,478.085693 347.998230,489.696075 
	C346.657928,505.397156 345.334442,521.099670 343.994171,536.800781 
	C343.003052,548.411194 341.989746,560.019592 340.998627,571.630005 
	C339.658325,587.331299 338.345825,603.034973 336.991669,618.735046 
	C335.680359,633.938538 334.314453,649.137451 333.004395,664.341125 
	C331.975494,676.281738 331.068695,688.233154 329.974487,700.167664 
	C328.626617,714.868713 327.140564,729.557129 325.677124,744.633423 
	C247.169830,744.633423 168.448242,744.633423 89.219154,744.633423 
	C88.169098,736.871277 87.080750,728.855896 86.001251,720.839294 
	C84.347122,708.555237 82.614250,696.281006 81.073006,683.982788 
	C79.609444,672.304382 78.467506,660.585266 76.966034,648.912170 
	C75.469185,637.275146 73.589745,625.687378 72.087860,614.050903 
	C70.894333,604.803528 70.141426,595.499573 68.964348,586.249817 
	C67.812965,577.201843 66.274132,568.203552 65.086861,559.159729 
	C63.937790,550.406677 63.094097,541.613831 61.980412,532.855835 
	C60.767078,523.314331 59.325516,513.801819 58.116928,504.259827 
	C56.987022,495.339050 56.123524,486.384399 54.977631,477.465851 
	C53.419178,465.336334 51.631413,453.236237 50.079681,441.105896 
	C48.938618,432.185883 48.111687,423.225708 46.974106,414.305206 
	C45.778320,404.928284 44.292336,395.588348 43.094288,386.211700 
	C41.954578,377.291656 41.107571,368.334290 39.976582,359.413025 
	C38.787434,350.033081 37.367004,340.682648 36.135189,331.307800 
	C35.028599,322.885956 34.088326,314.442291 32.989281,306.019379 
	C31.385670,293.729553 29.648344,281.456970 28.077484,269.163055 
	C26.958511,260.405731 26.094067,251.615921 24.980349,242.857849 
	C23.767036,233.316589 22.344141,223.802002 21.121056,214.261902 
	C20.623009,210.377106 20.410486,206.455719 20.019735,202.000000 
	C102.285934,202.000000 184.392960,202.000000 267.000000,202.000000 
M167.500000,535.000000 
	C143.392776,535.000000 119.285545,535.000000 94.965508,535.000000 
	C94.279099,526.266235 93.674980,518.086792 92.978096,509.915283 
	C92.616188,505.671722 92.417091,501.374908 91.562798,497.221802 
	C90.241066,490.796295 90.672279,490.001251 97.201317,490.001007 
	C148.359634,489.999207 199.517960,490.000000 250.676285,490.000000 
	C252.419449,490.000000 254.162628,490.000000 255.762589,490.000000 
	C255.762589,482.949615 255.762589,476.669312 255.762589,469.957550 
	C200.121765,469.957550 144.716263,469.957550 89.051491,469.957550 
	C87.576675,454.140564 86.140503,438.738007 84.673050,423.000000 
	C87.428665,423.000000 89.240120,423.000000 91.051582,423.000000 
	C172.205017,423.000000 253.358459,423.000275 334.511902,422.998077 
	C336.010895,422.998016 337.583832,423.242340 338.985260,422.864563 
	C340.085327,422.567963 341.708435,421.595459 341.837738,420.733978 
	C342.749237,414.658783 343.334290,408.534668 344.078247,401.941559 
	C298.177246,401.941559 252.771790,401.941559 207.273346,401.941559 
	C207.273346,346.772705 207.273346,292.049225 207.273346,237.000000 
	C209.345062,237.000000 211.147018,237.000000 212.948959,237.000000 
	C259.774658,237.000000 306.600342,237.000168 353.426056,236.999115 
	C354.759033,236.999100 356.205292,237.304123 357.390533,236.882172 
	C358.407440,236.520126 359.793732,235.376831 359.870331,234.481003 
	C360.469574,227.473877 360.792175,220.443100 361.209717,213.254211 
	C251.125336,213.254211 141.738373,213.254211 31.787651,213.254211 
	C32.204876,219.420883 33.009426,225.306717 32.869865,231.170074 
	C32.760311,235.773010 34.059437,237.121719 38.757595,237.104874 
	C86.582520,236.933273 134.408295,237.000000 182.233826,237.000000 
	C184.019470,237.000000 185.805130,237.000000 187.750580,237.000000 
	C187.750580,292.179230 187.750580,346.902679 187.750580,402.000000 
	C185.710342,402.000000 183.914505,402.000000 182.118668,402.000000 
	C142.791748,402.000000 103.464508,402.072388 64.138313,401.904083 
	C59.466831,401.884094 57.399895,402.930847 57.945831,407.951385 
	C59.133347,418.872131 59.982758,429.829193 61.052189,440.763397 
	C61.657162,446.948853 62.393436,453.122101 63.125202,459.294342 
	C64.394463,470.000214 65.788506,480.691925 66.971848,491.407074 
	C67.799980,498.905792 68.256012,506.445465 69.072250,513.945740 
	C70.291962,525.153503 71.901756,536.322998 72.917885,547.547424 
	C73.527626,554.282776 74.828972,555.999390 81.394341,555.999451 
	C162.714417,556.000305 244.034485,556.000000 325.354553,556.000000 
	C327.128693,556.000000 328.902863,556.000000 330.699585,556.000000 
	C330.699585,548.724976 330.699585,541.995300 330.699585,535.000000 
	C276.433075,535.000000 222.466537,535.000000 167.500000,535.000000 
M266.646088,717.950562 
	C271.584412,722.281799 276.398163,726.769043 281.525818,730.863159 
	C283.429565,732.383179 286.031952,733.744568 288.380402,733.859680 
	C296.024872,734.234375 303.699188,733.999878 312.234802,733.999878 
	C310.806000,731.689880 309.967285,729.549927 308.475128,728.067688 
	C303.905212,723.528259 299.036560,719.291565 294.371582,714.845337 
	C285.727264,706.606262 277.112701,698.335388 268.544220,690.017517 
	C255.074432,676.941711 241.689743,663.778076 228.195648,650.727417 
	C221.554947,644.304810 214.749756,638.052246 207.819016,631.534729 
	C216.584824,628.038940 224.860474,624.919983 232.989716,621.457336 
	C247.985031,615.070129 262.877472,608.441895 277.844940,601.988770 
	C289.714630,596.871155 301.658630,591.925110 313.500763,586.745544 
	C315.298431,585.959290 316.721985,584.317810 318.318604,583.071960 
	C318.066528,582.714600 317.814453,582.357300 317.562347,582.000000 
	C315.734528,582.000000 313.906677,582.000000 312.078827,582.000000 
	C263.590149,582.000000 215.101471,582.000000 166.612793,582.000000 
	C139.785721,582.000000 112.958649,581.992920 86.131577,582.006287 
	C81.080795,582.008850 80.349190,583.085510 81.370361,587.840820 
	C82.121429,591.338318 82.577507,594.910156 82.978577,598.469849 
	C84.370537,610.824402 85.510574,623.209595 87.063896,635.543152 
	C89.223969,652.694336 91.792076,669.794128 93.957779,686.944641 
	C95.837006,701.826538 97.399437,716.748413 99.112938,731.749512 
	C106.191116,731.749512 112.939468,731.749512 120.237701,731.749512 
	C118.102448,712.485229 116.000511,693.521606 113.920059,674.751770 
	C137.524994,664.076538 160.776657,653.561096 184.100952,643.012756 
	C186.970139,645.413208 189.930206,647.740051 192.722946,650.252808 
	C203.384155,659.845215 214.047058,669.437134 224.605209,679.142456 
	C238.472153,691.889343 252.240692,704.743286 266.646088,717.950562 
z"/>
<path fill="#212529" opacity="1.000000" stroke="none" 
	d="
M317.166656,145.989563 
	C308.067322,150.658600 298.534943,154.046356 288.727844,156.621277 
	C288.311615,156.157440 287.895386,155.693619 287.479156,155.229782 
	C289.494781,151.477966 291.339447,147.620956 293.567352,143.999771 
	C296.661102,138.971207 299.607452,133.752319 303.392303,129.269608 
	C310.983551,120.278709 318.401764,110.928917 327.220032,103.253731 
	C334.338135,97.058304 343.087280,92.425537 351.708649,88.364395 
	C358.946564,84.954941 363.646057,86.164368 363.981750,96.773689 
	C364.023376,98.088882 363.817139,99.411903 363.095642,100.911713 
	C362.365875,101.391258 362.266266,101.690392 362.166656,101.989532 
	C360.328613,106.933739 358.490570,111.877937 356.059021,116.957138 
	C355.365906,117.391266 355.266296,117.690399 355.166656,117.989532 
	C354.955170,118.308640 354.743683,118.627739 353.998840,119.019485 
	C353.365875,119.391266 353.266266,119.690399 353.166626,119.989525 
	C352.313171,121.284126 351.459747,122.578743 350.035889,123.982742 
	C349.365906,124.391266 349.266266,124.690399 349.166687,124.989540 
	C348.955170,125.308647 348.743683,125.627747 347.998840,126.019485 
	C347.365875,126.391258 347.266266,126.690392 347.166656,126.989532 
	C345.981598,127.956451 344.796539,128.923370 343.038483,129.991211 
	C342.365875,130.391296 342.266266,130.690430 342.166656,130.989563 
	C341.955139,131.308655 341.743652,131.627762 340.998840,132.019501 
	C340.365906,132.391296 340.266296,132.690430 340.166687,132.989563 
	C336.991608,134.949448 333.816589,136.909348 330.053528,138.980698 
	C329.365875,139.391281 329.266266,139.690430 329.166656,139.989563 
	C328.346771,140.332779 327.526917,140.675980 326.086273,141.055664 
	C325.365906,141.391296 325.266296,141.690430 325.166687,141.989563 
	C324.346771,142.332779 323.526917,142.675980 322.086243,143.055664 
	C321.365875,143.391296 321.266266,143.690430 321.166656,143.989563 
	C320.346771,144.332764 319.526917,144.675980 318.086243,145.055664 
	C317.365875,145.391281 317.266266,145.690430 317.166656,145.989563 
z"/>
<path fill="#DEE2E6" opacity="1.000000" stroke="none" 
	d="
M321.323303,143.872925 
	C321.266266,143.690430 321.365875,143.391296 321.727234,143.129395 
	C321.848022,143.388016 321.678345,143.584564 321.323303,143.872925 
z"/>
<path fill="#DEE2E6" opacity="1.000000" stroke="none" 
	d="
M317.323303,145.872925 
	C317.266266,145.690430 317.365875,145.391281 317.727234,145.129395 
	C317.848022,145.388016 317.678345,145.584564 317.323303,145.872925 
z"/>
<path fill="#DEE2E6" opacity="1.000000" stroke="none" 
	d="
M362.323303,101.872917 
	C362.266266,101.690392 362.365875,101.391258 362.727234,101.129395 
	C362.848022,101.388000 362.678345,101.584549 362.323303,101.872917 
z"/>
<path fill="#DEE2E6" opacity="1.000000" stroke="none" 
	d="
M340.323303,132.872940 
	C340.266296,132.690430 340.365906,132.391296 340.727234,132.129410 
	C340.848022,132.388016 340.678345,132.584564 340.323303,132.872940 
z"/>
<path fill="#DEE2E6" opacity="1.000000" stroke="none" 
	d="
M355.323303,117.872925 
	C355.266296,117.690399 355.365906,117.391266 355.727234,117.129395 
	C355.848022,117.388000 355.678345,117.584549 355.323303,117.872925 
z"/>
<path fill="#DEE2E6" opacity="1.000000" stroke="none" 
	d="
M353.323303,119.872925 
	C353.266266,119.690399 353.365875,119.391266 353.727234,119.129395 
	C353.848022,119.388000 353.678345,119.584549 353.323303,119.872925 
z"/>
<path fill="#DEE2E6" opacity="1.000000" stroke="none" 
	d="
M349.323303,124.872925 
	C349.266266,124.690399 349.365906,124.391266 349.727234,124.129395 
	C349.848022,124.388000 349.678345,124.584549 349.323303,124.872925 
z"/>
<path fill="#DEE2E6" opacity="1.000000" stroke="none" 
	d="
M347.323303,126.872917 
	C347.266266,126.690392 347.365875,126.391258 347.727234,126.129395 
	C347.848022,126.388000 347.678345,126.584549 347.323303,126.872917 
z"/>
<path fill="#DEE2E6" opacity="1.000000" stroke="none" 
	d="
M342.323303,130.872925 
	C342.266266,130.690430 342.365875,130.391296 342.727234,130.129395 
	C342.848022,130.388016 342.678345,130.584564 342.323303,130.872925 
z"/>
<path fill="#DEE2E6" opacity="1.000000" stroke="none" 
	d="
M329.323303,139.872925 
	C329.266266,139.690430 329.365875,139.391281 329.727234,139.129395 
	C329.848022,139.388016 329.678345,139.584564 329.323303,139.872925 
z"/>
<path fill="#DEE2E6" opacity="1.000000" stroke="none" 
	d="
M325.323303,141.872925 
	C325.266296,141.690430 325.365906,141.391296 325.727234,141.129395 
	C325.848022,141.388016 325.678345,141.584564 325.323303,141.872925 
z"/>
<path fill="#DEE2E6" opacity="1.000000" stroke="none" 
	d="
M168.000000,535.000000 
	C222.466537,535.000000 276.433075,535.000000 330.699585,535.000000 
	C330.699585,541.995300 330.699585,548.724976 330.699585,556.000000 
	C328.902863,556.000000 327.128693,556.000000 325.354553,556.000000 
	C244.034485,556.000000 162.714417,556.000305 81.394341,555.999451 
	C74.828972,555.999390 73.527626,554.282776 72.917885,547.547424 
	C71.901756,536.322998 70.291962,525.153503 69.072250,513.945740 
	C68.256012,506.445465 67.799980,498.905792 66.971848,491.407074 
	C65.788506,480.691925 64.394463,470.000214 63.125202,459.294342 
	C62.393436,453.122101 61.657162,446.948853 61.052189,440.763397 
	C59.982758,429.829193 59.133347,418.872131 57.945831,407.951385 
	C57.399895,402.930847 59.466831,401.884094 64.138313,401.904083 
	C103.464508,402.072388 142.791748,402.000000 182.118668,402.000000 
	C183.914505,402.000000 185.710342,402.000000 187.750580,402.000000 
	C187.750580,346.902679 187.750580,292.179230 187.750580,237.000000 
	C185.805130,237.000000 184.019470,237.000000 182.233826,237.000000 
	C134.408295,237.000000 86.582520,236.933273 38.757595,237.104874 
	C34.059437,237.121719 32.760311,235.773010 32.869865,231.170074 
	C33.009426,225.306717 32.204876,219.420883 31.787651,213.254211 
	C141.738373,213.254211 251.125336,213.254211 361.209717,213.254211 
	C360.792175,220.443100 360.469574,227.473877 359.870331,234.481003 
	C359.793732,235.376831 358.407440,236.520126 357.390533,236.882172 
	C356.205292,237.304123 354.759033,236.999100 353.426056,236.999115 
	C306.600342,237.000168 259.774658,237.000000 212.948959,237.000000 
	C211.147018,237.000000 209.345062,237.000000 207.273346,237.000000 
	C207.273346,292.049225 207.273346,346.772705 207.273346,401.941559 
	C252.771790,401.941559 298.177246,401.941559 344.078247,401.941559 
	C343.334290,408.534668 342.749237,414.658783 341.837738,420.733978 
	C341.708435,421.595459 340.085327,422.567963 338.985260,422.864563 
	C337.583832,423.242340 336.010895,422.998016 334.511902,422.998077 
	C253.358459,423.000275 172.205017,423.000000 91.051582,423.000000 
	C89.240120,423.000000 87.428665,423.000000 84.673050,423.000000 
	C86.140503,438.738007 87.576675,454.140564 89.051491,469.957550 
	C144.716263,469.957550 200.121765,469.957550 255.762589,469.957550 
	C255.762589,476.669312 255.762589,482.949615 255.762589,490.000000 
	C254.162628,490.000000 252.419449,490.000000 250.676285,490.000000 
	C199.517960,490.000000 148.359634,489.999207 97.201317,490.001007 
	C90.672279,490.001251 90.241066,490.796295 91.562798,497.221802 
	C92.417091,501.374908 92.616188,505.671722 92.978096,509.915283 
	C93.674980,518.086792 94.279099,526.266235 94.965508,535.000000 
	C119.285545,535.000000 143.392776,535.000000 168.000000,535.000000 
z"/>
<path fill="#DEE2E6" opacity="1.000000" stroke="none" 
	d="
M266.348816,717.750854 
	C252.240692,704.743286 238.472153,691.889343 224.605209,679.142456 
	C214.047058,669.437134 203.384155,659.845215 192.722946,650.252808 
	C189.930206,647.740051 186.970139,645.413208 184.100952,643.012756 
	C160.776657,653.561096 137.524994,664.076538 113.920059,674.751770 
	C116.000511,693.521606 118.102448,712.485229 120.237701,731.749512 
	C112.939468,731.749512 106.191116,731.749512 99.112938,731.749512 
	C97.399437,716.748413 95.837006,701.826538 93.957779,686.944641 
	C91.792076,669.794128 89.223969,652.694336 87.063896,635.543152 
	C85.510574,623.209595 84.370537,610.824402 82.978577,598.469849 
	C82.577507,594.910156 82.121429,591.338318 81.370361,587.840820 
	C80.349190,583.085510 81.080795,582.008850 86.131577,582.006287 
	C112.958649,581.992920 139.785721,582.000000 166.612793,582.000000 
	C215.101471,582.000000 263.590149,582.000000 312.078827,582.000000 
	C313.906677,582.000000 315.734528,582.000000 317.562347,582.000000 
	C317.814453,582.357300 318.066528,582.714600 318.318604,583.071960 
	C316.721985,584.317810 315.298431,585.959290 313.500763,586.745544 
	C301.658630,591.925110 289.714630,596.871155 277.844940,601.988770 
	C262.877472,608.441895 247.985031,615.070129 232.989716,621.457336 
	C224.860474,624.919983 216.584824,628.038940 207.819016,631.534729 
	C214.749756,638.052246 221.554947,644.304810 228.195648,650.727417 
	C241.689743,663.778076 255.074432,676.941711 268.544220,690.017517 
	C277.112701,698.335388 285.727264,706.606262 294.371582,714.845337 
	C299.036560,719.291565 303.905212,723.528259 308.475128,728.067688 
	C309.967285,729.549927 310.806000,731.689880 312.234802,733.999878 
	C303.699188,733.999878 296.024872,734.234375 288.380402,733.859680 
	C286.031952,733.744568 283.429565,732.383179 281.525818,730.863159 
	C276.398163,726.769043 271.584412,722.281799 266.348816,717.750854 
M133.500000,599.000000 
	C124.066002,599.000000 114.631996,599.000000 105.021164,599.000000 
	C105.021164,601.231934 104.891136,602.891968 105.041580,604.526245 
	C106.332344,618.548157 107.963593,632.547180 108.844170,646.593750 
	C109.155487,651.559937 111.387161,651.100586 114.313629,649.861206 
	C129.035248,643.626587 143.691528,637.237793 158.378586,630.921265 
	C179.441833,621.862671 200.522095,612.843445 221.562576,603.732422 
	C223.585754,602.856262 225.379395,601.450195 227.279602,600.290100 
	C227.089111,599.860107 226.898636,599.430054 226.708145,599.000000 
	C195.972092,599.000000 165.236053,599.000000 133.500000,599.000000 
z"/>
<path fill="#212529" opacity="1.000000" stroke="none" 
	d="
M134.000000,599.000000 
	C165.236053,599.000000 195.972092,599.000000 226.708145,599.000000 
	C226.898636,599.430054 227.089111,599.860107 227.279602,600.290100 
	C225.379395,601.450195 223.585754,602.856262 221.562576,603.732422 
	C200.522095,612.843445 179.441833,621.862671 158.378586,630.921265 
	C143.691528,637.237793 129.035248,643.626587 114.313629,649.861206 
	C111.387161,651.100586 109.155487,651.559937 108.844170,646.593750 
	C107.963593,632.547180 106.332344,618.548157 105.041580,604.526245 
	C104.891136,602.891968 105.021164,601.231934 105.021164,599.000000 
	C114.631996,599.000000 124.066002,599.000000 134.000000,599.000000 
z"/>
</svg>